<?xml version="1.0" standalone="no"?>
<!DOCTYPE svg PUBLIC "-//W3C//DTD SVG 20010904//EN"
 "http://www.w3.org/TR/2001/REC-SVG-20010904/DTD/svg10.dtd">
<svg version="1.0" xmlns="http://www.w3.org/2000/svg"
 width="1024.000000pt" height="1024.000000pt" viewBox="0 0 1024.000000 1024.000000"
 preserveAspectRatio="xMidYMid meet">
<metadata>
Created by potrace 1.14, written by Peter Selinger 2001-2017
</metadata>
<g transform="translate(0.000000,1024.000000) scale(0.100000,-0.100000)"
fill="#000000" stroke="none">
<path d="M0 8400 c0 -13 7 -20 20 -20 11 0 20 -7 20 -15 0 -8 9 -15 20 -15 11
0 20 7 20 15 0 8 -9 15 -20 15 -13 0 -20 7 -20 20 0 13 -7 20 -20 20 -13 0
-20 -7 -20 -20z"/>
<path d="M80 8325 c0 -8 9 -15 20 -15 13 0 20 -7 20 -20 0 -11 7 -20 15 -20 8
0 15 -9 15 -20 0 -13 7 -20 20 -20 13 0 20 -7 20 -20 0 -13 7 -20 20 -20 13 0
20 -7 20 -20 0 -11 7 -20 15 -20 8 0 17 -14 21 -35 4 -25 11 -35 25 -35 12 0
19 -7 19 -20 0 -11 7 -20 15 -20 8 0 15 -9 15 -20 0 -13 7 -20 20 -20 13 0 20
-7 20 -20 0 -13 7 -20 20 -20 11 0 20 -7 20 -15 0 -8 7 -15 15 -15 8 0 15 7
15 15 0 8 -7 15 -15 15 -8 0 -15 9 -15 20 0 13 -7 20 -20 20 -13 0 -20 7 -20
20 0 13 -7 20 -20 20 -16 0 -20 7 -20 35 0 28 -4 35 -20 35 -13 0 -20 7 -20
20 0 13 -7 20 -20 20 -13 0 -20 7 -20 20 0 11 -7 20 -15 20 -8 0 -15 9 -15 20
0 13 -7 20 -20 20 -13 0 -20 7 -20 20 0 13 -7 20 -20 20 -13 0 -20 7 -20 20 0
11 -7 20 -15 20 -8 0 -15 7 -15 15 0 8 -9 15 -20 15 -11 0 -20 -7 -20 -15z"/>
<path d="M0 7985 c0 -54 0 -54 35 -61 29 -5 35 -11 41 -40 3 -19 12 -34 20
-34 8 0 14 -9 14 -20 0 -13 7 -20 20 -20 13 0 20 -7 20 -20 0 -13 7 -20 20
-20 13 0 20 -7 20 -20 0 -11 7 -20 15 -20 8 0 17 -14 21 -35 3 -20 12 -35 20
-35 8 0 14 -9 14 -20 0 -13 7 -20 20 -20 13 0 20 -7 20 -20 0 -13 7 -20 20
-20 16 0 20 -7 20 -35 0 -28 4 -35 20 -35 13 0 20 -7 20 -20 0 -11 6 -20 14
-20 9 0 17 -15 21 -40 4 -23 12 -40 20 -40 7 0 15 -9 18 -20 3 -11 12 -20 21
-20 12 0 16 -10 16 -35 0 -28 4 -35 20 -35 13 0 20 -7 20 -20 0 -13 7 -20 20
-20 16 0 20 -7 20 -35 0 -43 26 -48 35 -6 8 37 -3 81 -21 81 -8 0 -14 9 -14
20 0 13 -7 20 -20 20 -16 0 -20 7 -20 34 0 25 -5 35 -20 39 -12 3 -20 14 -20
26 0 12 -6 21 -15 21 -8 0 -17 14 -21 35 -3 20 -12 35 -20 35 -8 0 -14 9 -14
20 0 13 -7 20 -20 20 -13 0 -20 7 -20 20 0 11 -7 20 -15 20 -8 0 -17 14 -21
35 -3 19 -12 35 -20 35 -7 0 -16 15 -19 34 -5 22 -14 36 -26 39 -10 3 -19 12
-19 21 0 9 -7 16 -15 16 -8 0 -15 9 -15 20 0 13 -7 20 -20 20 -13 0 -20 7 -20
19 0 10 -9 21 -20 24 -11 3 -20 12 -20 21 0 9 -7 16 -15 16 -8 0 -17 14 -20
34 -5 22 -14 36 -26 39 -10 3 -19 12 -19 20 0 8 -9 17 -20 20 -11 3 -20 12
-20 21 0 9 -7 16 -15 16 -12 0 -15 -13 -15 -55z"/>
<path d="M460 7905 c0 -8 7 -15 15 -15 8 0 15 -9 15 -20 0 -13 7 -20 20 -20
13 0 20 7 20 20 0 13 -7 20 -20 20 -11 0 -20 7 -20 15 0 8 -7 15 -15 15 -8 0
-15 -7 -15 -15z"/>
<path d="M570 7835 c0 -10 11 -15 35 -15 24 0 35 5 35 15 0 10 -11 15 -35 15
-24 0 -35 -5 -35 -15z"/>
<path d="M0 7740 c0 -33 3 -40 20 -40 13 0 20 -7 20 -20 0 -13 7 -20 20 -20
13 0 20 -7 20 -20 0 -11 7 -20 15 -20 8 0 17 -14 21 -35 3 -20 12 -35 20 -35
8 0 14 -9 14 -20 0 -13 7 -20 20 -20 13 0 20 -7 20 -20 0 -13 7 -20 20 -20 17
0 20 -7 20 -40 0 -28 4 -40 15 -40 8 0 17 -14 21 -35 3 -20 12 -35 20 -35 8 0
14 -9 14 -20 0 -13 7 -20 20 -20 16 0 20 -7 20 -34 0 -25 5 -35 20 -39 15 -4
20 -14 20 -41 0 -29 4 -36 20 -36 17 0 20 -7 20 -40 0 -28 4 -40 15 -40 8 0
17 -14 21 -35 3 -19 12 -35 19 -35 8 0 16 -17 20 -40 4 -25 12 -40 21 -40 9 0
14 -12 14 -35 0 -28 4 -35 20 -35 17 0 20 -7 20 -40 0 -33 3 -40 20 -40 16 0
20 -7 20 -35 0 -24 5 -35 15 -35 9 0 15 -9 15 -21 0 -12 8 -23 20 -26 15 -4
20 -14 20 -39 0 -27 4 -34 20 -34 16 0 20 -7 20 -35 0 -28 4 -35 20 -35 15 0
20 -7 20 -25 0 -15 6 -25 15 -25 8 0 17 -14 21 -35 4 -25 11 -35 25 -35 11 0
19 -7 19 -15 0 -8 7 -15 15 -15 8 0 15 -9 15 -20 0 -13 7 -20 20 -20 13 0 20
-7 20 -20 0 -13 7 -20 20 -20 13 0 20 -7 20 -20 0 -13 7 -20 20 -20 13 0 20
-7 20 -20 0 -13 7 -20 20 -20 11 0 20 -7 20 -15 0 -8 14 -17 35 -21 20 -3 35
-12 35 -20 0 -8 7 -14 16 -14 9 0 18 -9 21 -20 4 -15 14 -20 39 -20 27 0 34
-4 34 -20 0 -13 7 -20 20 -20 11 0 20 -6 20 -14 0 -9 15 -17 40 -21 24 -4 40
-12 40 -20 0 -8 15 -17 35 -21 19 -3 35 -12 35 -19 0 -8 17 -16 40 -20 25 -4
40 -12 40 -21 0 -9 12 -14 35 -14 28 0 35 -4 35 -20 0 -17 7 -20 40 -20 33 0
40 -3 40 -20 0 -17 7 -20 40 -20 27 0 40 -4 40 -14 0 -8 15 -17 35 -20 21 -4
35 -13 35 -21 0 -10 11 -15 33 -15 47 0 77 -10 77 -26 0 -10 13 -14 40 -14 33
0 40 -3 40 -20 0 -18 7 -20 54 -20 45 0 54 -3 59 -20 4 -17 14 -20 61 -20 43
0 56 -3 56 -15 0 -10 10 -15 33 -15 47 0 77 -10 77 -26 0 -9 12 -14 33 -14 47
0 77 -10 77 -26 0 -10 16 -14 60 -14 53 0 60 -2 60 -20 0 -18 7 -20 55 -20 41
0 55 -4 55 -15 0 -10 17 -16 60 -21 41 -4 60 -11 60 -20 0 -10 13 -14 44 -14
63 0 106 -11 106 -26 0 -11 18 -14 75 -14 68 0 75 -2 75 -20 0 -18 7 -20 75
-20 57 0 75 3 75 14 0 17 -31 26 -97 26 -38 0 -53 4 -53 14 0 15 -43 26 -106
26 -32 0 -44 4 -44 15 0 10 -10 15 -29 15 -49 0 -91 12 -91 26 0 11 -17 14
-70 14 -63 0 -70 2 -70 20 0 18 -7 20 -60 20 -53 0 -60 2 -60 20 0 18 -7 20
-55 20 -40 0 -55 4 -55 14 0 13 -41 26 -86 26 -15 0 -24 6 -24 15 0 11 -11 15
-41 15 -32 0 -42 4 -46 20 -4 17 -14 20 -55 20 -41 0 -51 3 -55 20 -5 17 -14
20 -59 20 -47 0 -54 2 -54 20 0 16 -7 20 -34 20 -25 0 -35 5 -39 20 -4 17 -14
20 -61 20 -42 0 -56 4 -56 15 0 8 -14 17 -35 21 -20 3 -35 12 -35 20 0 10 -13
14 -40 14 -33 0 -40 3 -40 20 0 17 -7 20 -40 20 -33 0 -40 3 -40 20 0 16 -7
20 -34 20 -25 0 -35 5 -39 20 -4 15 -14 20 -41 20 -25 0 -36 5 -36 15 0 8 -14
17 -35 21 -20 3 -35 12 -35 20 0 10 -13 14 -40 14 -33 0 -40 3 -40 20 0 13 -7
20 -20 20 -11 0 -20 7 -20 15 0 8 -14 17 -35 21 -25 4 -35 11 -35 25 0 12 -7
19 -20 19 -11 0 -20 6 -20 14 0 8 -15 17 -35 20 -21 4 -35 13 -35 21 0 8 -9
15 -20 15 -13 0 -20 7 -20 20 0 13 -7 20 -20 20 -13 0 -20 7 -20 20 0 13 -7
20 -20 20 -13 0 -20 7 -20 20 0 13 -7 20 -20 20 -11 0 -20 7 -20 15 0 8 -7 15
-15 15 -8 0 -15 9 -15 20 0 13 -7 20 -19 20 -14 0 -21 10 -25 35 -4 21 -13 35
-21 35 -9 0 -15 10 -15 25 0 18 -5 25 -20 25 -16 0 -20 7 -20 35 0 28 -4 35
-20 35 -13 0 -20 7 -20 20 0 11 -6 20 -14 20 -13 0 -26 41 -26 86 0 15 -6 24
-15 24 -8 0 -15 9 -15 20 0 13 -7 20 -20 20 -17 0 -20 7 -20 40 0 33 -3 40
-20 40 -16 0 -20 7 -20 35 0 23 -5 35 -14 35 -9 0 -17 15 -21 40 -4 25 -12 40
-21 40 -9 0 -14 12 -14 36 0 27 -5 37 -20 41 -15 4 -20 14 -20 39 0 27 -4 34
-20 34 -16 0 -20 7 -20 36 0 27 -5 37 -20 41 -15 4 -20 14 -20 39 0 27 -4 34
-20 34 -16 0 -20 7 -20 35 0 24 -5 35 -15 35 -9 0 -15 9 -15 21 0 12 -8 23
-20 26 -11 3 -20 14 -20 24 0 12 -7 19 -20 19 -16 0 -20 7 -20 35 0 28 -4 35
-20 35 -13 0 -20 7 -20 20 0 11 -6 20 -14 20 -7 0 -16 9 -19 20 -3 11 -12 20
-20 20 -9 0 -17 14 -21 35 -4 21 -13 35 -21 35 -8 0 -15 9 -15 20 0 13 -7 20
-20 20 -13 0 -20 7 -20 20 0 13 -7 20 -20 20 -17 0 -20 -7 -20 -40z"/>
<path d="M720 7645 c0 -8 9 -15 20 -15 11 0 20 7 20 15 0 8 -9 15 -20 15 -11
0 -20 -7 -20 -15z"/>
<path d="M2320 7645 c0 -8 7 -15 15 -15 8 0 15 7 15 15 0 8 -7 15 -15 15 -8 0
-15 -7 -15 -15z"/>
<path d="M646 7585 c-4 -21 -13 -35 -21 -35 -12 0 -15 -19 -15 -95 0 -78 3
-95 15 -95 12 0 15 17 15 95 0 88 1 95 20 95 13 0 20 7 20 20 0 13 7 20 20 20
11 0 20 7 20 15 0 10 -10 15 -34 15 -31 0 -34 -3 -40 -35z"/>
<path d="M2390 7605 c0 -10 11 -15 35 -15 24 0 35 5 35 15 0 10 -11 15 -35 15
-24 0 -35 -5 -35 -15z"/>
<path d="M2500 7565 c0 -10 11 -15 35 -15 24 0 35 5 35 15 0 10 -11 15 -35 15
-24 0 -35 -5 -35 -15z"/>
<path d="M2580 7525 c0 -10 11 -15 35 -15 24 0 35 5 35 15 0 10 -11 15 -35 15
-24 0 -35 -5 -35 -15z"/>
<path d="M2690 7491 c0 -17 6 -21 34 -21 19 0 38 5 41 11 9 14 6 16 -37 24
-34 7 -38 5 -38 -14z"/>
<path d="M2770 7456 c0 -14 55 -30 71 -20 5 3 9 12 9 20 0 10 -12 14 -40 14
-27 0 -40 -4 -40 -14z"/>
<path d="M2880 7415 c0 -11 11 -15 40 -15 29 0 40 4 40 15 0 11 -11 15 -40 15
-29 0 -40 -4 -40 -15z"/>
<path d="M2960 7375 c0 -12 13 -15 55 -15 42 0 55 3 55 15 0 12 -13 15 -55 15
-42 0 -55 -3 -55 -15z"/>
<path d="M650 7320 c0 -29 4 -40 15 -40 8 0 15 -9 15 -20 0 -13 7 -20 20 -20
16 0 20 -7 20 -35 0 -28 4 -35 20 -35 13 0 20 -7 20 -20 0 -13 7 -20 20 -20
11 0 20 -6 20 -14 0 -7 9 -16 20 -19 11 -3 20 -12 20 -21 0 -9 13 -18 35 -22
25 -4 35 -11 35 -25 0 -12 7 -19 20 -19 11 0 20 -7 20 -15 0 -8 9 -15 20 -15
13 0 20 -7 20 -20 0 -13 7 -20 20 -20 11 0 20 -7 20 -15 0 -8 14 -17 35 -21
19 -3 35 -12 35 -19 0 -7 9 -15 20 -18 11 -3 20 -12 20 -21 0 -12 10 -16 35
-16 28 0 35 -4 35 -20 0 -17 7 -20 40 -20 33 0 40 -3 40 -20 0 -16 7 -20 34
-20 25 0 35 -5 39 -20 4 -15 14 -20 41 -20 24 0 36 -5 36 -14 0 -9 15 -17 40
-21 25 -4 40 -12 40 -21 0 -9 12 -14 36 -14 27 0 37 -5 41 -20 4 -17 14 -20
55 -20 41 0 51 -3 55 -20 5 -17 14 -20 59 -20 47 0 54 -2 54 -20 0 -17 7 -20
40 -20 29 0 40 -4 40 -15 0 -9 9 -15 24 -15 45 0 86 -13 86 -26 0 -10 15 -14
55 -14 48 0 55 -2 55 -20 0 -18 7 -20 60 -20 53 0 60 -2 60 -20 0 -18 7 -20
55 -20 48 0 55 -2 55 -20 0 -18 7 -20 55 -20 42 0 55 -3 55 -15 0 -10 10 -15
29 -15 49 0 91 -12 91 -26 0 -10 15 -14 55 -14 48 0 55 -2 55 -20 0 -18 7 -20
60 -20 44 0 60 -4 60 -14 0 -17 31 -26 98 -26 45 0 52 -3 52 -20 0 -18 7 -20
55 -20 40 0 55 -4 55 -14 0 -9 19 -16 60 -20 43 -5 60 -11 60 -21 0 -12 16
-15 70 -15 63 0 70 -2 70 -20 0 -18 7 -20 60 -20 44 0 60 -4 60 -14 0 -17 31
-26 98 -26 37 0 52 -4 52 -14 0 -15 43 -26 106 -26 32 0 44 -4 44 -15 0 -11
11 -15 43 -15 68 0 117 -11 117 -26 0 -11 21 -14 91 -14 82 0 91 -2 96 -20 5
-17 14 -20 59 -20 47 0 54 2 54 20 0 18 -7 20 -54 20 -45 0 -54 3 -59 20 -4
17 -14 20 -61 20 -42 0 -56 4 -56 14 0 10 -20 16 -75 21 -54 5 -75 11 -75 21
0 10 -15 14 -52 14 -67 0 -98 9 -98 26 0 11 -18 14 -75 14 -68 0 -75 2 -75 20
0 18 -7 20 -74 20 -65 0 -74 2 -79 20 -4 17 -14 20 -61 20 -41 0 -56 4 -56 14
0 13 -41 26 -86 26 -14 0 -24 6 -24 14 0 10 -21 16 -75 21 -55 5 -75 11 -75
21 0 10 -15 14 -60 14 -53 0 -60 2 -60 20 0 18 -7 20 -55 20 -48 0 -55 2 -55
20 0 18 -7 20 -60 20 -47 0 -60 3 -60 15 0 9 -9 15 -24 15 -45 0 -86 13 -86
26 0 10 -13 14 -44 14 -63 0 -106 11 -106 26 0 10 -13 14 -40 14 -33 0 -40 3
-40 20 0 18 -7 20 -55 20 -40 0 -55 4 -55 14 0 9 -19 16 -60 20 -40 5 -60 11
-60 20 0 14 -42 26 -86 26 -15 0 -24 6 -24 15 0 10 -10 15 -32 15 -48 0 -78
10 -78 26 0 10 -15 14 -55 14 -48 0 -55 2 -55 20 0 17 -7 20 -40 20 -27 0 -40
4 -40 14 0 13 -41 26 -86 26 -14 0 -24 6 -24 14 0 9 -15 17 -40 21 -25 4 -40
12 -40 21 0 9 -11 14 -34 14 -25 0 -35 5 -39 20 -4 15 -14 20 -41 20 -29 0
-36 4 -36 20 0 17 -7 20 -40 20 -33 0 -40 3 -40 20 0 16 -7 20 -35 20 -24 0
-35 5 -35 15 0 8 -9 15 -20 15 -13 0 -20 7 -20 20 0 16 -7 20 -35 20 -28 0
-35 4 -35 20 0 13 -7 20 -19 20 -10 0 -21 9 -24 20 -3 12 -14 20 -26 20 -12 0
-21 6 -21 15 0 8 -14 17 -35 21 -19 3 -35 12 -35 19 0 7 -9 15 -20 18 -11 3
-20 12 -20 21 0 9 -8 16 -20 16 -11 0 -20 7 -20 15 0 8 -7 15 -16 15 -9 0 -18
9 -21 20 -3 11 -12 20 -19 20 -8 0 -14 9 -14 20 0 13 -7 20 -20 20 -13 0 -20
7 -20 20 0 11 -6 20 -14 20 -9 0 -17 15 -21 40 -4 25 -12 40 -21 40 -10 0 -14
-12 -14 -40z"/>
<path d="M3098 7353 c-34 -9 -20 -33 18 -33 28 0 35 3 32 17 -3 19 -21 24 -50
16z"/>
<path d="M3182 7303 c2 -13 14 -19 41 -21 24 -2 37 -8 37 -18 0 -10 14 -14 55
-14 42 0 55 3 55 15 0 12 -13 15 -55 15 -48 0 -55 2 -55 20 0 17 -7 20 -41 20
-33 0 -40 -3 -37 -17z"/>
<path d="M3380 7225 c0 -10 11 -15 35 -15 24 0 35 5 35 15 0 10 -11 15 -35 15
-24 0 -35 -5 -35 -15z"/>
<path d="M3490 7185 c0 -10 11 -15 35 -15 24 0 35 5 35 15 0 10 -11 15 -35 15
-24 0 -35 -5 -35 -15z"/>
<path d="M3588 7163 c-33 -8 -20 -33 17 -33 28 0 35 4 35 20 0 20 -14 23 -52
13z"/>
<path d="M3680 7115 c0 -8 6 -15 13 -15 6 0 22 -3 35 -6 18 -5 22 -2 22 15 0
17 -6 21 -35 21 -24 0 -35 -5 -35 -15z"/>
<path d="M3790 7075 c0 -8 9 -15 20 -15 11 0 20 7 20 15 0 8 -9 15 -20 15 -11
0 -20 -7 -20 -15z"/>
<path d="M3870 7035 c0 -10 11 -15 35 -15 24 0 35 5 35 15 0 10 -11 15 -35 15
-24 0 -35 -5 -35 -15z"/>
<path d="M3980 6995 c0 -11 11 -15 40 -15 33 0 40 -3 40 -20 0 -17 7 -20 41
-20 33 0 40 3 37 18 -2 12 -14 18 -41 20 -24 2 -37 8 -37 18 0 10 -12 14 -40
14 -29 0 -40 -4 -40 -15z"/>
<path d="M4170 6926 c0 -14 55 -30 71 -20 5 3 9 12 9 20 0 10 -12 14 -40 14
-27 0 -40 -4 -40 -14z"/>
<path d="M4280 6885 c0 -11 11 -15 40 -15 29 0 40 4 40 15 0 11 -11 15 -40 15
-29 0 -40 -4 -40 -15z"/>
<path d="M4400 6845 c0 -8 9 -15 20 -15 11 0 20 7 20 15 0 8 -9 15 -20 15 -11
0 -20 -7 -20 -15z"/>
<path d="M830 6805 c0 -8 9 -15 20 -15 11 0 20 7 20 15 0 8 -9 15 -20 15 -11
0 -20 -7 -20 -15z"/>
<path d="M4480 6805 c0 -8 7 -15 15 -15 8 0 15 7 15 15 0 8 -7 15 -15 15 -8 0
-15 -7 -15 -15z"/>
<path d="M4590 6770 c0 -5 9 -10 20 -10 11 0 20 5 20 10 0 6 -9 10 -20 10 -11
0 -20 -4 -20 -10z"/>
<path d="M4700 6735 c0 -8 9 -15 20 -15 11 0 20 7 20 15 0 8 -9 15 -20 15 -11
0 -20 -7 -20 -15z"/>
<path d="M1140 6505 c0 -8 7 -15 15 -15 8 0 15 7 15 15 0 8 -7 15 -15 15 -8 0
-15 -7 -15 -15z"/>
<path d="M8270 6505 c0 -13 23 -15 150 -15 127 0 150 2 150 15 0 13 -23 15
-150 15 -127 0 -150 -2 -150 -15z"/>
<path d="M8800 6505 c0 -12 15 -15 75 -15 60 0 75 3 75 15 0 12 -15 15 -75 15
-60 0 -75 -3 -75 -15z"/>
<path d="M8040 6465 c0 -12 13 -15 60 -15 47 0 60 3 60 15 0 12 -13 15 -60 15
-47 0 -60 -3 -60 -15z"/>
<path d="M8990 6465 c0 -11 11 -15 40 -15 29 0 40 4 40 15 0 11 -11 15 -40 15
-29 0 -40 -4 -40 -15z"/>
<path d="M9100 6430 c0 -13 7 -20 20 -20 16 0 20 -7 20 -34 0 -25 5 -35 20
-39 17 -4 20 -14 20 -61 0 -43 3 -56 15 -56 8 0 15 -9 15 -20 0 -11 -7 -20
-15 -20 -12 0 -15 -13 -15 -55 0 -42 3 -55 15 -55 12 0 15 13 15 55 0 47 3 55
19 55 14 0 21 -10 25 -35 4 -21 13 -35 21 -35 12 0 15 -19 15 -95 0 -75 -3
-95 -14 -95 -9 0 -17 -15 -21 -40 -4 -25 -12 -40 -21 -40 -9 0 -14 -12 -14
-36 0 -27 -5 -37 -19 -41 -12 -3 -21 -17 -26 -39 -3 -20 -12 -34 -20 -34 -8 0
-15 -9 -15 -20 0 -11 -7 -20 -15 -20 -8 0 -17 -14 -21 -35 -4 -21 -12 -35 -21
-35 -8 0 -17 -9 -20 -20 -3 -11 -12 -20 -19 -20 -8 0 -14 -9 -14 -20 0 -13 -7
-20 -20 -20 -13 0 -20 -7 -20 -20 0 -13 -7 -20 -20 -20 -13 0 -20 -7 -20 -20
0 -11 -6 -20 -14 -20 -7 0 -16 -9 -19 -20 -3 -11 -12 -20 -21 -20 -9 0 -16 -7
-16 -16 0 -9 -9 -18 -20 -21 -11 -3 -20 -12 -20 -19 0 -8 -9 -14 -20 -14 -13
0 -20 -7 -20 -20 0 -13 -7 -20 -20 -20 -13 0 -20 -7 -20 -20 0 -13 -7 -20 -20
-20 -11 0 -20 -7 -20 -15 0 -8 -7 -15 -15 -15 -8 0 -15 -9 -15 -20 0 -13 -7
-20 -20 -20 -13 0 -20 -7 -20 -20 0 -13 -7 -20 -20 -20 -11 0 -20 -7 -20 -15
0 -8 -14 -17 -34 -20 -22 -5 -36 -14 -39 -26 -4 -14 -14 -19 -41 -19 -25 0
-36 -4 -36 -15 0 -12 -16 -15 -84 -15 -101 0 -146 -8 -146 -26 0 -10 -16 -14
-64 -14 -82 0 -126 -9 -126 -26 0 -10 -16 -14 -60 -14 -53 0 -60 2 -60 20 0
15 7 20 25 20 15 0 25 6 25 15 0 8 14 17 35 21 19 3 35 12 35 19 0 7 16 16 35
19 21 4 35 13 35 21 0 9 9 15 21 15 12 0 23 8 26 20 4 15 14 20 39 20 27 0 34
4 34 20 0 16 7 20 35 20 28 0 35 4 35 20 0 13 7 20 20 20 11 0 20 7 20 15 0
10 -11 15 -35 15 -28 0 -35 -4 -35 -19 0 -14 -5 -18 -20 -14 -15 4 -20 0 -20
-16 0 -17 -6 -21 -35 -21 -28 0 -35 -4 -35 -20 0 -17 -7 -20 -40 -20 -33 0
-40 -3 -40 -20 0 -13 -7 -20 -20 -20 -11 0 -20 -7 -20 -15 0 -10 -14 -17 -40
-21 -24 -4 -40 -12 -40 -20 0 -9 -12 -14 -35 -14 -28 0 -35 -4 -35 -20 0 -16
-7 -20 -35 -20 -28 0 -35 -4 -35 -20 0 -15 -7 -20 -25 -20 -15 0 -25 -6 -25
-15 0 -8 -14 -17 -35 -21 -19 -3 -35 -12 -35 -19 0 -8 -17 -16 -40 -20 -23 -4
-40 -12 -40 -20 0 -7 -16 -16 -35 -19 -21 -4 -35 -13 -35 -21 0 -11 -12 -15
-40 -15 -33 0 -40 -3 -40 -20 0 -16 -7 -20 -35 -20 -28 0 -35 -4 -35 -20 0
-17 -7 -20 -40 -20 -33 0 -40 -3 -40 -20 0 -16 -7 -20 -35 -20 -23 0 -35 -5
-35 -14 0 -8 -16 -16 -40 -20 -26 -4 -40 -11 -40 -21 0 -11 -11 -15 -40 -15
-33 0 -40 -3 -40 -20 0 -16 -7 -20 -34 -20 -25 0 -35 -5 -39 -20 -4 -15 -14
-20 -41 -20 -24 0 -36 -5 -36 -14 0 -13 -41 -26 -86 -26 -14 0 -24 -6 -24 -14
0 -9 -15 -17 -40 -21 -25 -4 -40 -12 -40 -21 0 -10 -12 -14 -40 -14 -33 0 -40
-3 -40 -20 0 -17 -7 -20 -40 -20 -27 0 -40 -4 -40 -14 0 -15 -30 -26 -72 -26
-18 0 -28 -5 -28 -15 0 -11 -11 -15 -40 -15 -33 0 -40 -3 -40 -20 0 -16 -7
-20 -32 -20 -48 0 -78 -10 -78 -26 0 -10 -13 -14 -40 -14 -33 0 -40 -3 -40
-20 0 -18 -7 -20 -54 -20 -45 0 -54 -3 -59 -20 -4 -17 -14 -20 -62 -20 -48 0
-56 -2 -53 -17 2 -10 11 -18 21 -17 9 0 35 1 57 2 28 2 40 6 40 17 0 9 9 15
24 15 45 0 86 13 86 26 0 10 13 14 40 14 33 0 40 3 40 20 0 18 7 20 55 20 48
0 55 2 55 20 0 17 7 20 40 20 27 0 40 4 40 14 0 16 30 26 78 26 20 0 32 5 32
14 0 8 15 17 35 20 21 4 35 13 35 21 0 11 12 15 40 15 33 0 40 3 40 20 0 18 7
20 55 20 48 0 55 2 55 20 0 17 7 20 40 20 28 0 40 4 40 14 0 9 15 17 40 21 25
4 40 12 40 21 0 9 12 14 35 14 28 0 35 4 35 20 0 17 7 20 40 20 33 0 40 3 40
20 0 17 7 20 40 20 33 0 40 3 40 20 0 16 7 20 35 20 23 0 35 5 35 14 0 16 30
26 78 26 22 0 32 5 32 15 0 8 9 15 20 15 13 0 20 7 20 20 0 17 7 20 40 20 33
0 40 3 40 20 0 18 7 20 55 20 40 0 55 4 55 14 0 15 43 26 105 26 34 0 44 4 48
20 4 17 14 20 61 20 43 0 56 3 56 15 0 12 15 15 75 15 68 0 75 2 75 20 0 19 7
20 95 20 88 0 95 1 95 20 0 18 7 20 60 20 53 0 60 -2 60 -20 0 -15 -7 -20 -25
-20 -18 0 -25 -5 -25 -20 0 -13 -7 -20 -20 -20 -11 0 -20 -7 -20 -15 0 -8 -14
-17 -35 -21 -20 -3 -35 -12 -35 -20 0 -8 -9 -14 -20 -14 -13 0 -20 -7 -20 -20
0 -16 -7 -20 -35 -20 -28 0 -35 -4 -35 -20 0 -15 -7 -20 -25 -20 -15 0 -25 -6
-25 -15 0 -8 -14 -17 -35 -21 -19 -3 -35 -12 -35 -19 0 -7 -16 -16 -35 -19
-20 -4 -35 -13 -35 -21 0 -8 -16 -16 -40 -20 -25 -4 -40 -12 -40 -21 0 -8 -9
-14 -20 -14 -11 0 -20 -7 -20 -15 0 -8 -14 -17 -35 -21 -19 -3 -35 -12 -35
-19 0 -8 -17 -16 -40 -20 -24 -4 -40 -12 -40 -20 0 -8 -15 -17 -35 -21 -19 -3
-35 -12 -35 -19 0 -8 -17 -16 -40 -20 -25 -4 -40 -12 -40 -21 0 -8 -9 -14 -20
-14 -11 0 -20 -7 -20 -15 0 -10 -14 -17 -40 -21 -23 -4 -40 -12 -40 -20 0 -7
-16 -16 -35 -20 -20 -3 -35 -12 -35 -20 0 -9 -12 -14 -36 -14 -27 0 -37 -5
-41 -20 -4 -15 -14 -20 -40 -20 -26 0 -36 -5 -40 -20 -4 -17 -14 -20 -54 -20
-42 0 -49 -3 -49 -20 0 -17 -7 -20 -40 -20 -33 0 -40 -3 -40 -20 0 -17 -7 -20
-40 -20 -27 0 -40 -4 -40 -14 0 -8 -15 -17 -35 -20 -21 -4 -35 -13 -35 -21 0
-11 -12 -15 -40 -15 -33 0 -40 -3 -40 -20 0 -18 -7 -20 -55 -20 -48 0 -55 -2
-55 -20 0 -17 -7 -20 -40 -20 -33 0 -40 -3 -40 -20 0 -17 -7 -20 -40 -20 -28
0 -40 -4 -40 -15 0 -8 -14 -17 -35 -21 -20 -3 -35 -12 -35 -20 0 -10 -15 -14
-55 -14 -48 0 -55 -2 -55 -20 0 -17 -7 -20 -40 -20 -33 0 -40 -3 -40 -20 0
-18 -7 -20 -54 -20 -45 0 -54 -3 -59 -20 -4 -15 -14 -20 -41 -20 -25 0 -36 -4
-36 -15 0 -10 -10 -15 -32 -15 -48 0 -78 -10 -78 -26 0 -10 -15 -14 -56 -14
-47 0 -57 -3 -61 -20 -5 -17 -14 -20 -59 -20 -47 0 -54 -2 -54 -20 0 -18 -7
-20 -54 -20 -45 0 -54 -3 -59 -20 -4 -15 -14 -20 -41 -20 -25 0 -36 -4 -36
-15 0 -12 -13 -15 -60 -15 -53 0 -60 -2 -60 -20 0 -18 -7 -20 -55 -20 -48 0
-55 2 -55 20 0 17 7 20 40 20 29 0 40 4 40 15 0 8 7 15 15 15 8 0 15 9 15 20
0 11 -7 20 -15 20 -8 0 -15 -9 -15 -20 0 -17 -7 -20 -40 -20 -29 0 -40 -4 -40
-15 0 -9 -9 -15 -24 -15 -45 0 -86 -13 -86 -26 0 -10 13 -14 40 -14 33 0 40
-3 40 -20 0 -17 -7 -20 -40 -20 -27 0 -43 5 -46 15 -4 8 -12 15 -20 15 -8 0
-14 8 -14 19 0 10 -9 21 -20 24 -16 4 -20 14 -20 50 0 24 3 59 6 76 6 27 10
31 40 31 24 0 34 5 34 15 0 11 -11 15 -40 15 -29 0 -40 -4 -40 -15 0 -9 -9
-15 -21 -15 -21 0 -22 -3 -15 -61 3 -34 6 -77 6 -95 0 -24 5 -34 15 -34 8 0
15 -9 15 -20 0 -13 7 -20 20 -20 27 0 25 -26 -2 -34 -13 -3 -47 -6 -75 -6 -46
0 -53 -3 -53 -20 0 -18 -7 -20 -75 -20 -60 0 -75 -3 -75 -15 0 -12 -13 -15
-56 -15 -47 0 -57 -3 -61 -20 -5 -18 -14 -20 -79 -20 -56 0 -74 -3 -74 -14 0
-19 -32 -26 -117 -26 -66 0 -73 -2 -73 -20 0 -19 -7 -20 -90 -20 -73 0 -90 -3
-90 -15 0 -12 -13 -15 -59 -15 -102 0 -181 -12 -181 -26 0 -8 -7 -14 -15 -14
-8 0 -15 9 -15 20 0 11 7 20 15 20 8 0 15 7 15 16 0 9 9 18 20 21 11 3 20 12
20 19 0 10 13 14 40 14 33 0 40 3 40 20 0 13 7 20 20 20 13 0 20 7 20 20 0 16
7 20 35 20 23 0 35 5 35 14 0 8 15 17 35 20 21 4 35 13 35 21 0 9 9 15 21 15
12 0 23 8 26 20 4 15 14 20 39 20 27 0 34 4 34 20 0 17 7 20 40 20 33 0 40 3
40 20 0 16 7 20 35 20 28 0 35 4 35 20 0 13 7 20 20 20 11 0 20 7 20 15 0 11
11 15 40 15 33 0 40 3 40 20 0 16 7 20 35 20 21 0 37 6 43 16 5 10 27 18 55
21 33 4 47 10 50 24 4 16 15 19 61 19 41 0 56 4 56 14 0 15 43 26 106 26 32 0
44 4 44 15 0 10 15 15 57 17 46 2 59 7 61 21 3 15 -5 17 -57 17 -54 0 -61 -2
-61 -20 0 -18 -7 -20 -75 -20 -57 0 -75 -3 -75 -14 0 -15 -43 -26 -106 -26
-32 0 -44 -4 -44 -15 0 -10 -10 -15 -29 -15 -49 0 -91 -12 -91 -26 0 -11 -17
-14 -70 -14 l-70 0 0 -36 c0 -27 -5 -37 -19 -41 -11 -3 -21 -13 -24 -24 -4
-14 -14 -19 -41 -19 -25 0 -36 -4 -36 -15 0 -8 -9 -15 -20 -15 -13 0 -20 -7
-20 -20 0 -16 -7 -20 -35 -20 -28 0 -35 -4 -35 -20 0 -17 -7 -20 -40 -20 -33
0 -40 -3 -40 -20 0 -13 -7 -20 -20 -20 -11 0 -20 -6 -20 -14 0 -8 -15 -17 -35
-20 -20 -4 -35 -13 -35 -21 0 -8 -16 -16 -40 -20 -25 -4 -40 -12 -40 -21 0 -8
-9 -14 -20 -14 -13 0 -20 -7 -20 -20 0 -16 -7 -20 -35 -20 -28 0 -35 -4 -35
-20 0 -13 -7 -20 -20 -20 -11 0 -20 -6 -20 -14 0 -9 -15 -17 -40 -21 -25 -4
-40 -12 -40 -21 0 -12 -35 -14 -202 -14 -214 0 -248 -4 -248 -26 0 -12 54 -14
320 -14 313 0 320 0 320 20 0 19 7 20 100 20 93 0 100 1 100 20 0 19 7 20 110
20 91 0 110 3 110 15 0 11 12 15 44 15 63 0 106 11 106 26 0 11 18 14 75 14
68 0 75 2 75 20 0 18 7 20 75 20 68 0 75 2 75 20 0 18 7 20 74 20 65 0 74 2
79 20 4 17 14 20 61 20 41 0 56 4 56 14 0 10 21 16 75 21 55 5 75 11 75 21 0
10 14 14 55 14 48 0 55 2 55 20 0 18 7 20 60 20 53 0 60 2 60 20 0 18 7 20 55
20 40 0 55 4 55 14 0 13 41 26 86 26 15 0 24 6 24 15 0 10 10 15 29 15 49 0
91 12 91 26 0 9 12 14 33 14 47 0 77 10 77 26 0 10 13 14 40 14 33 0 40 3 40
20 0 18 7 20 55 20 41 0 55 4 55 14 0 9 15 17 40 21 25 4 40 12 40 21 0 10 12
14 40 14 33 0 40 3 40 20 0 18 7 20 55 20 48 0 55 2 55 20 0 17 7 20 40 20 33
0 40 3 40 20 0 17 7 20 50 20 36 0 50 4 50 14 0 8 16 16 40 20 26 4 40 11 40
21 0 11 11 15 40 15 33 0 40 3 40 20 0 17 7 20 40 20 33 0 40 3 40 20 0 17 7
20 40 20 27 0 40 4 40 14 0 15 30 26 73 26 16 0 27 5 27 14 0 9 15 17 40 21
25 4 40 12 40 21 0 10 12 14 40 14 33 0 40 3 40 20 0 16 7 20 35 20 28 0 35 4
35 20 0 17 7 20 40 20 29 0 40 4 40 15 0 10 14 17 40 21 22 4 40 12 40 19 0 7
16 16 35 19 21 4 35 13 35 21 0 11 12 15 40 15 33 0 40 3 40 20 0 16 7 20 35
20 28 0 35 4 35 20 0 15 7 20 25 20 15 0 25 6 25 15 0 8 14 17 35 21 19 3 35
12 35 19 0 7 16 16 35 19 21 4 35 13 35 21 0 11 12 15 40 15 33 0 40 3 40 20
0 16 7 20 35 20 28 0 35 4 35 20 0 15 7 20 25 20 15 0 25 6 25 15 0 8 14 17
35 21 19 3 35 12 35 19 0 7 16 16 35 19 21 4 35 13 35 21 0 8 9 15 20 15 13 0
20 7 20 20 0 16 7 20 34 20 25 0 35 5 39 20 3 12 14 20 26 20 12 0 21 6 21 15
0 8 14 17 35 21 20 3 35 12 35 20 0 8 9 14 20 14 13 0 20 7 20 20 0 13 7 20
20 20 13 0 20 7 20 20 0 16 7 20 35 20 28 0 35 4 35 20 0 13 7 20 20 20 11 0
20 7 20 15 0 8 9 15 20 15 13 0 20 7 20 20 0 13 7 20 20 20 13 0 20 7 20 20 0
16 7 20 35 20 28 0 35 4 35 20 0 13 7 20 20 20 13 0 20 7 20 20 0 13 7 20 20
20 13 0 20 7 20 20 0 11 7 20 15 20 8 0 15 7 15 15 0 8 9 15 20 15 13 0 20 7
20 20 0 13 7 20 20 20 13 0 20 7 20 20 0 13 7 20 20 20 13 0 20 7 20 20 0 13
7 20 20 20 13 0 20 7 20 20 0 11 7 20 15 20 8 0 15 7 15 15 0 8 8 15 19 15 14
0 21 10 25 35 4 21 13 35 21 35 8 0 15 9 15 20 0 13 7 20 20 20 13 0 20 7 20
19 0 10 9 21 20 24 15 4 20 14 20 41 0 29 4 36 20 36 13 0 20 7 20 20 0 11 7
20 15 20 11 0 15 11 15 36 0 27 5 37 20 41 17 5 20 14 20 59 0 47 2 54 20 54
18 0 20 7 20 55 l0 55 55 0 c48 0 55 -2 55 -20 0 -13 7 -20 20 -20 13 0 20 -7
20 -20 0 -13 7 -20 20 -20 18 0 20 -7 20 -55 0 -41 4 -55 14 -55 18 0 29 48
20 84 -3 14 -12 26 -20 26 -8 0 -14 9 -14 20 0 13 -7 20 -20 20 -13 0 -20 7
-20 20 0 13 -7 20 -20 20 -13 0 -20 7 -20 20 0 18 -7 20 -55 20 -48 0 -55 2
-55 20 0 13 -7 20 -20 20 -18 0 -20 7 -20 55 0 42 -4 55 -15 55 -10 0 -17 14
-21 40 -4 24 -12 40 -20 40 -9 0 -14 12 -14 35 0 28 -4 35 -20 35 -13 0 -20 7
-20 20 0 13 -7 20 -20 20 -13 0 -20 7 -20 20 0 13 -7 20 -20 20 -13 0 -20 -7
-20 -20z m-1210 -1520 c0 -13 -7 -20 -20 -20 -13 0 -20 7 -20 20 0 13 7 20 20
20 13 0 20 -7 20 -20z"/>
<path d="M7850 6425 c0 -12 13 -15 55 -15 42 0 55 3 55 15 0 12 -13 15 -55 15
-42 0 -55 -3 -55 -15z"/>
<path d="M1290 6390 c0 -11 7 -20 15 -20 8 0 15 9 15 20 0 11 -7 20 -15 20 -8
0 -15 -9 -15 -20z"/>
<path d="M7660 6390 c0 -19 5 -21 57 -18 46 2 59 7 61 21 3 15 -5 17 -57 17
-55 0 -61 -2 -61 -20z"/>
<path d="M7470 6356 c0 -18 36 -24 100 -18 33 3 50 9 50 18 0 11 -18 14 -75
14 -57 0 -75 -3 -75 -14z"/>
<path d="M7320 6316 c0 -17 -31 -26 -97 -26 -40 0 -53 -4 -53 -15 0 -12 15
-15 75 -15 68 0 75 2 75 20 0 18 7 20 75 20 60 0 75 3 75 15 0 12 -15 15 -75
15 -57 0 -75 -3 -75 -14z"/>
<path d="M8288 6293 c-78 -3 -98 -7 -98 -18 0 -13 25 -15 150 -15 127 0 150 2
150 15 0 9 -9 15 -24 15 -13 0 -36 1 -52 3 -16 2 -73 2 -126 0z"/>
<path d="M8650 6275 c0 -12 14 -15 70 -15 56 0 70 3 70 15 0 12 -14 15 -70 15
-56 0 -70 -3 -70 -15z"/>
<path d="M7057 6254 c-4 -4 -7 -13 -7 -21 0 -9 17 -13 61 -13 52 0 60 2 57 18
-2 13 -15 18 -53 20 -28 2 -54 0 -58 -4z"/>
<path d="M8023 6253 c-13 -2 -23 -11 -23 -19 0 -11 17 -14 75 -14 68 0 75 2
75 20 0 18 -6 20 -52 19 -29 -1 -63 -4 -75 -6z"/>
<path d="M8800 6240 c0 -11 7 -20 15 -20 8 0 15 9 15 20 0 11 -7 20 -15 20 -8
0 -15 -9 -15 -20z"/>
<path d="M6900 6205 c0 -22 23 -28 75 -21 29 5 45 12 45 22 0 11 -14 14 -60
14 -47 0 -60 -3 -60 -15z"/>
<path d="M7780 6206 c0 -20 45 -28 117 -20 44 4 63 11 63 20 0 11 -20 14 -90
14 -70 0 -90 -3 -90 -14z"/>
<path d="M8837 6200 c-5 -19 -14 -20 -150 -20 -136 0 -145 -1 -150 -20 -5 -19
-14 -20 -156 -20 -121 0 -151 -3 -151 -14 0 -10 -27 -15 -110 -21 -85 -5 -110
-10 -110 -21 0 -11 -20 -14 -96 -14 -87 0 -96 -2 -101 -20 -5 -18 -14 -20 -99
-20 -73 0 -94 -3 -94 -14 0 -17 -31 -26 -97 -26 -38 0 -53 -4 -53 -14 0 -18
-32 -26 -112 -26 -54 0 -68 -3 -68 -15 0 -10 -10 -15 -29 -15 -49 0 -91 -12
-91 -26 0 -10 -16 -14 -60 -14 -53 0 -60 -2 -60 -20 0 -18 -7 -20 -75 -20 -68
0 -75 -2 -75 -20 0 -18 -7 -20 -55 -20 -42 0 -55 -3 -55 -15 0 -12 15 -15 75
-15 60 0 75 3 75 15 0 12 13 15 56 15 47 0 57 3 61 20 5 18 14 20 74 20 62 0
69 2 69 20 0 18 7 20 74 20 65 0 74 2 79 20 4 17 14 20 61 20 43 0 56 3 56 15
0 11 12 15 44 15 63 0 106 11 106 26 0 11 18 14 73 14 85 0 117 7 117 26 0 11
22 14 100 14 93 0 100 1 100 20 0 19 7 20 130 20 104 0 130 3 130 14 0 20 46
26 196 26 106 0 134 3 134 14 0 10 28 14 112 19 61 3 115 4 120 1 4 -3 8 -30
8 -60 0 -39 4 -54 14 -54 14 0 29 131 19 170 -7 26 -29 26 -36 0z"/>
<path d="M1250 6160 c0 -13 7 -20 20 -20 13 0 20 7 20 20 0 13 -7 20 -20 20
-13 0 -20 -7 -20 -20z"/>
<path d="M6790 6165 c0 -12 13 -15 55 -15 42 0 55 3 55 15 0 12 -13 15 -55 15
-42 0 -55 -3 -55 -15z"/>
<path d="M7630 6165 c0 -12 14 -15 70 -15 56 0 70 3 70 15 0 12 -14 15 -70 15
-56 0 -70 -3 -70 -15z"/>
<path d="M1670 6125 c0 -8 7 -15 15 -15 8 0 15 7 15 15 0 8 -7 15 -15 15 -8 0
-15 -7 -15 -15z"/>
<path d="M6670 6125 c0 -11 11 -15 40 -15 29 0 40 4 40 15 0 11 -11 15 -40 15
-29 0 -40 -4 -40 -15z"/>
<path d="M7470 6125 c0 -12 13 -15 60 -15 47 0 60 3 60 15 0 12 -13 15 -60 15
-47 0 -60 -3 -60 -15z"/>
<path d="M7320 6085 c0 -12 13 -15 55 -15 42 0 55 3 55 15 0 12 -13 15 -55 15
-42 0 -55 -3 -55 -15z"/>
<path d="M1630 6030 c0 -33 3 -40 20 -40 17 0 20 7 20 40 0 33 -3 40 -20 40
-17 0 -20 -7 -20 -40z"/>
<path d="M7170 6050 c0 -18 -7 -20 -60 -20 -53 0 -60 -2 -60 -20 0 -18 -7 -20
-75 -20 -68 0 -75 -2 -75 -20 0 -18 -7 -20 -55 -20 -42 0 -55 -3 -55 -15 0
-12 13 -15 55 -15 42 0 55 3 55 15 0 11 12 15 44 15 63 0 106 11 106 26 0 9
11 14 29 14 49 0 91 12 91 26 0 10 15 14 55 14 48 0 55 2 55 20 0 18 -7 20
-55 20 -48 0 -55 -2 -55 -20z"/>
<path d="M9140 6010 c0 -11 7 -20 15 -20 8 0 15 9 15 20 0 11 -7 20 -15 20 -8
0 -15 -9 -15 -20z"/>
<path d="M8800 5970 c0 -13 -7 -20 -20 -20 -13 0 -20 -7 -20 -20 0 -13 -7 -20
-20 -20 -11 0 -20 -7 -20 -15 0 -15 -64 -19 -320 -20 -44 0 -55 -3 -58 -17 -3
-16 -19 -18 -168 -18 -157 0 -164 -1 -164 -20 0 -19 -7 -20 -100 -20 -94 0
-100 -1 -100 -20 0 -17 -6 -20 -32 -19 -18 2 -61 2 -95 1 -49 -2 -63 -5 -63
-17 0 -12 -13 -15 -59 -15 -78 0 -121 -9 -121 -26 0 -11 20 -14 90 -14 70 0
90 3 90 14 0 17 44 26 126 26 48 0 64 4 64 14 0 18 45 26 146 26 68 0 84 3 84
15 0 12 14 15 63 17 34 1 76 2 92 3 17 1 56 2 88 3 43 2 57 6 57 17 0 13 24
15 155 15 148 0 155 -1 155 -20 0 -13 -7 -20 -20 -20 -11 0 -20 -7 -20 -15 0
-8 9 -15 20 -15 11 0 20 7 20 15 0 8 7 15 15 15 8 0 15 9 15 20 0 15 7 20 25
20 18 0 25 5 25 20 0 11 7 20 15 20 8 0 15 7 15 15 0 8 9 15 20 15 13 0 20 7
20 20 0 11 7 20 15 20 8 0 15 9 15 20 0 11 -7 20 -15 20 -8 0 -15 -9 -15 -20z"/>
<path d="M9107 5953 c-4 -3 -7 -15 -7 -25 0 -10 -6 -18 -14 -18 -8 0 -17 -15
-20 -35 -4 -21 -13 -35 -21 -35 -8 0 -15 -9 -15 -20 0 -13 -7 -20 -20 -20 -13
0 -20 -7 -20 -20 0 -13 -7 -20 -20 -20 -11 0 -20 -6 -20 -14 0 -7 -9 -16 -20
-19 -11 -3 -20 -12 -20 -21 0 -9 -7 -16 -15 -16 -8 0 -15 -9 -15 -20 0 -13 -7
-20 -20 -20 -13 0 -20 -7 -20 -20 0 -13 -7 -20 -20 -20 -13 0 -20 -7 -20 -20
0 -13 -7 -20 -20 -20 -11 0 -20 -7 -20 -15 0 -8 -9 -15 -20 -15 -13 0 -20 -7
-20 -20 0 -13 -7 -20 -20 -20 -13 0 -20 -7 -20 -20 0 -16 -7 -20 -35 -20 -28
0 -35 -4 -35 -20 0 -13 -7 -20 -20 -20 -11 0 -20 -7 -20 -15 0 -8 -14 -17 -35
-21 -20 -3 -35 -12 -35 -20 0 -8 -9 -14 -20 -14 -13 0 -20 -7 -20 -20 0 -13
-7 -20 -20 -20 -13 0 -20 -7 -20 -20 0 -17 -7 -20 -40 -20 -28 0 -40 -4 -40
-14 0 -8 4 -17 9 -20 16 -10 71 6 71 20 0 8 9 14 20 14 13 0 20 7 20 20 0 16
7 20 35 20 28 0 35 4 35 20 0 13 7 20 20 20 11 0 20 7 20 15 0 8 14 17 35 21
21 4 35 12 35 21 0 8 9 17 20 20 11 3 20 12 20 19 0 8 9 14 20 14 13 0 20 7
20 20 0 13 7 20 20 20 13 0 20 7 20 20 0 13 7 20 20 20 11 0 20 6 20 14 0 7 9
16 20 19 11 3 20 12 20 20 0 9 14 17 35 21 22 4 35 13 35 22 0 9 9 18 20 21
11 3 20 12 20 19 0 8 7 14 15 14 8 0 17 14 21 35 4 21 12 35 21 35 8 0 17 9
20 20 3 11 12 20 19 20 8 0 14 9 14 20 0 13 7 20 19 20 14 0 21 10 25 35 4 21
13 35 21 35 9 0 15 10 15 25 0 24 -18 34 -33 18z"/>
<path d="M6710 5895 c0 -10 11 -15 35 -15 24 0 35 5 35 15 0 10 -11 15 -35 15
-24 0 -35 -5 -35 -15z"/>
<path d="M4480 5825 c0 -8 7 -15 15 -15 8 0 15 7 15 15 0 8 -7 15 -15 15 -8 0
-15 -7 -15 -15z"/>
<path d="M9560 5765 c0 -68 -2 -75 -20 -75 -18 0 -20 -7 -20 -75 0 -68 -2 -75
-20 -75 -17 0 -20 -7 -20 -40 0 -28 -4 -40 -15 -40 -8 0 -17 -14 -21 -35 -3
-20 -12 -35 -20 -35 -8 0 -14 -9 -14 -20 0 -13 -7 -20 -19 -20 -14 0 -21 -10
-25 -35 -4 -21 -13 -35 -21 -35 -9 0 -15 -10 -15 -25 0 -18 -5 -25 -20 -25
-11 0 -20 -7 -20 -15 0 -8 -7 -15 -16 -15 -9 0 -18 -9 -21 -20 -3 -11 -12 -20
-19 -20 -8 0 -14 -9 -14 -20 0 -13 -7 -20 -20 -20 -13 0 -20 -7 -20 -20 0 -13
-7 -20 -20 -20 -13 0 -20 -7 -20 -20 0 -13 -7 -20 -20 -20 -13 0 -20 -7 -20
-20 0 -11 -7 -20 -15 -20 -8 0 -15 -7 -15 -15 0 -8 -9 -15 -20 -15 -13 0 -20
-7 -20 -20 0 -13 -7 -20 -20 -20 -13 0 -20 -7 -20 -20 0 -13 -7 -20 -20 -20
-11 0 -20 -6 -20 -14 0 -7 -9 -16 -20 -19 -11 -3 -20 -12 -20 -20 0 -8 -9 -17
-20 -20 -11 -3 -20 -12 -20 -21 0 -12 -10 -16 -35 -16 -28 0 -35 -4 -35 -20 0
-13 -7 -20 -20 -20 -13 0 -20 -7 -20 -20 0 -13 -7 -20 -20 -20 -11 0 -20 -7
-20 -15 0 -8 -14 -17 -35 -21 -20 -3 -35 -12 -35 -20 0 -8 -9 -14 -20 -14 -13
0 -20 -7 -20 -20 0 -13 -7 -20 -20 -20 -11 0 -20 -7 -20 -15 0 -10 -14 -17
-40 -21 -30 -5 -40 -11 -40 -25 0 -15 -7 -19 -35 -19 -28 0 -35 -4 -35 -20 0
-13 -7 -20 -20 -20 -11 0 -20 -7 -20 -15 0 -10 -11 -15 -35 -15 -28 0 -35 -4
-35 -20 0 -15 -7 -20 -25 -20 -18 0 -25 -5 -25 -20 0 -16 -7 -20 -35 -20 -34
0 -49 -20 -26 -34 15 -10 71 6 71 19 0 7 16 16 35 19 21 4 35 13 35 21 0 8 8
15 19 15 10 0 21 9 24 20 4 15 14 20 41 20 29 0 36 4 36 20 0 13 7 20 20 20
11 0 20 6 20 14 0 8 15 17 35 20 21 4 35 13 35 21 0 8 9 15 20 15 13 0 20 7
20 20 0 16 7 20 35 20 28 0 35 4 35 20 0 13 7 20 20 20 11 0 20 7 20 15 0 8 9
15 20 15 13 0 20 7 20 19 0 14 10 21 35 25 21 4 35 13 35 21 0 8 9 15 20 15
13 0 20 7 20 20 0 13 7 20 20 20 13 0 20 7 20 20 0 13 7 20 20 20 11 0 20 7
20 15 0 8 9 15 20 15 13 0 20 7 20 19 0 13 10 21 34 25 28 5 36 12 41 36 5 24
13 31 41 36 24 4 34 12 34 25 0 11 7 19 15 19 8 0 15 7 15 15 0 9 9 15 21 15
12 0 23 8 26 20 3 11 11 20 18 20 7 0 16 16 19 35 4 21 13 35 21 35 8 0 15 9
15 20 0 13 7 20 20 20 13 0 20 7 20 20 0 13 7 20 20 20 13 0 20 7 20 20 0 11
6 20 14 20 8 0 17 15 20 35 4 21 13 35 21 35 9 0 15 9 15 21 0 12 8 23 20 26
11 3 20 14 20 24 0 12 7 19 20 19 15 0 20 -7 20 -25 0 -24 23 -35 34 -16 10
16 -6 71 -20 71 -10 0 -14 13 -14 40 0 33 3 40 20 40 18 0 20 7 20 70 0 56 3
70 15 70 12 0 15 16 15 80 0 64 -3 80 -15 80 -12 0 -15 -15 -15 -75z"/>
<path d="M2090 5745 c0 -8 7 -15 15 -15 8 0 15 7 15 15 0 8 -7 15 -15 15 -8 0
-15 -7 -15 -15z"/>
<path d="M6680 5745 c0 -12 13 -15 55 -15 42 0 55 3 55 15 0 12 -13 15 -55 15
-42 0 -55 -3 -55 -15z"/>
<path d="M8570 5745 c0 -8 -7 -15 -16 -15 -9 0 -18 -9 -21 -19 -3 -12 -17 -21
-39 -26 -20 -3 -34 -12 -34 -20 0 -8 -9 -15 -20 -15 -13 0 -20 -7 -20 -20 0
-13 -7 -20 -20 -20 -11 0 -20 -7 -20 -15 0 -8 -14 -17 -35 -21 -20 -3 -35 -12
-35 -20 0 -8 -9 -14 -21 -14 -12 0 -23 -8 -26 -20 -4 -15 -14 -20 -39 -20 -27
0 -34 -4 -34 -20 0 -16 -7 -20 -34 -20 -25 0 -35 -5 -39 -20 -4 -15 -14 -20
-41 -20 -29 0 -36 -4 -36 -20 0 -13 -7 -20 -20 -20 -11 0 -20 -7 -20 -15 0
-11 -11 -15 -37 -15 -77 0 -143 -12 -143 -26 0 -11 -28 -14 -135 -14 -128 0
-135 -1 -135 -20 0 -19 -7 -20 -129 -20 -120 0 -129 -1 -134 -20 -5 -18 -14
-20 -101 -20 -79 0 -96 -3 -96 -15 0 -10 -10 -15 -34 -15 -79 0 -156 -13 -156
-26 0 -11 -17 -14 -67 -14 -81 0 -113 -8 -113 -26 0 -11 -16 -14 -65 -14 -58
0 -65 -2 -65 -20 0 -18 -7 -20 -70 -20 -63 0 -70 -2 -70 -20 0 -18 -7 -20 -75
-20 -57 0 -75 -3 -75 -14 0 -14 -42 -26 -91 -26 -19 0 -29 -5 -29 -15 0 -12
-13 -15 -55 -15 -48 0 -55 -2 -55 -20 0 -18 -7 -20 -60 -20 -53 0 -60 -2 -60
-20 0 -18 -7 -20 -55 -20 -40 0 -55 -4 -55 -14 0 -13 -41 -26 -86 -26 -14 0
-24 -6 -24 -14 0 -9 -15 -17 -40 -21 -25 -4 -40 -12 -40 -21 0 -10 12 -14 40
-14 27 0 40 4 40 14 0 16 30 26 78 26 20 0 32 5 32 14 0 14 42 26 91 26 19 0
29 5 29 15 0 11 12 15 51 15 42 0 52 3 56 20 5 17 14 20 59 20 47 0 54 2 54
20 0 18 7 20 60 20 44 0 60 4 60 14 0 17 31 26 98 26 38 0 52 4 52 14 0 10 20
16 70 21 50 5 70 11 70 21 0 10 14 14 49 14 68 0 111 10 111 26 0 11 18 14 74
14 65 0 74 2 79 20 5 18 14 20 96 20 84 0 91 1 91 20 0 19 7 20 115 20 91 0
115 3 115 14 0 10 27 15 115 21 89 5 115 10 115 21 0 11 25 14 130 14 107 0
130 -3 130 -15 0 -8 -14 -17 -35 -21 -19 -3 -35 -12 -35 -19 0 -7 -18 -15 -40
-19 -24 -4 -40 -12 -40 -20 0 -8 -15 -17 -35 -20 -21 -4 -35 -13 -35 -21 0
-11 -12 -15 -45 -15 -32 0 -45 -4 -45 -14 0 -18 -32 -26 -112 -26 -61 0 -68
-2 -68 -20 0 -19 -7 -20 -95 -20 -74 0 -95 -3 -95 -14 0 -9 -19 -16 -60 -20
-43 -5 -60 -11 -60 -21 0 -12 -16 -15 -70 -15 -63 0 -70 -2 -70 -20 0 -18 -7
-20 -74 -20 -65 0 -74 -2 -79 -20 -4 -17 -14 -20 -61 -20 -43 0 -56 -3 -56
-15 0 -10 -10 -15 -34 -15 -79 0 -156 -13 -156 -26 0 -9 -12 -14 -32 -14 -47
0 -78 -10 -78 -25 0 -8 -19 -14 -51 -17 -34 -4 -55 -11 -61 -22 -7 -12 -23
-16 -62 -16 -45 0 -54 -3 -59 -20 -4 -15 -14 -20 -41 -20 -25 0 -36 -4 -36
-15 0 -9 -9 -15 -24 -15 -45 0 -86 -13 -86 -26 0 -8 -10 -14 -24 -14 -43 0
-86 -12 -86 -25 0 -7 -18 -15 -40 -19 -26 -4 -40 -11 -40 -21 0 -11 -13 -15
-54 -15 -45 0 -54 -3 -59 -20 -4 -15 -14 -20 -41 -20 -24 0 -36 -5 -36 -14 0
-9 -15 -17 -40 -21 -25 -4 -40 -12 -40 -21 0 -8 -7 -14 -15 -14 -8 0 -15 -9
-15 -20 0 -18 7 -20 55 -20 48 0 55 2 55 20 0 17 7 20 40 20 29 0 40 4 40 15
0 9 9 15 24 15 45 0 86 13 86 26 0 8 10 14 24 14 45 0 86 13 86 26 0 10 13 14
40 14 33 0 40 3 40 20 0 18 7 20 55 20 48 0 55 2 55 20 0 17 7 20 40 20 27 0
40 4 40 14 0 13 41 26 86 26 15 0 24 6 24 15 0 10 10 15 33 15 47 0 77 10 77
26 0 10 12 14 39 14 30 0 40 4 44 20 4 17 14 20 61 20 41 0 56 4 56 14 0 16
30 26 78 26 21 0 32 5 32 14 0 10 20 16 75 21 54 5 75 11 75 21 0 9 11 14 29
14 49 0 91 12 91 26 0 11 18 14 75 14 68 0 75 2 75 20 0 18 7 20 75 20 57 0
75 3 75 14 0 17 31 26 98 26 45 0 52 -3 52 -20 0 -17 -7 -20 -40 -20 -33 0
-40 -3 -40 -20 0 -16 -7 -20 -35 -20 -28 0 -35 -4 -35 -20 0 -17 -7 -20 -40
-20 -29 0 -40 -4 -40 -15 0 -11 11 -15 40 -15 29 0 40 4 40 15 0 10 11 15 35
15 28 0 35 4 35 20 0 17 7 20 40 20 33 0 40 3 40 20 0 16 7 20 35 20 23 0 35
5 35 14 0 9 15 17 40 21 23 4 40 12 40 20 0 8 17 16 40 20 23 4 40 12 40 20 0
7 16 16 35 19 21 4 35 13 35 21 0 8 8 15 19 15 10 0 21 9 24 20 4 15 14 20 41
20 29 0 36 4 36 20 0 16 7 20 35 20 23 0 35 5 35 14 0 9 15 17 40 21 25 4 40
12 40 21 0 8 9 14 20 14 13 0 20 7 20 20 0 16 7 20 35 20 28 0 35 4 35 20 0
17 7 20 40 20 33 0 40 3 40 20 0 13 7 20 20 20 11 0 20 7 20 15 0 8 14 17 35
21 19 3 35 12 35 19 0 7 16 16 35 19 21 4 35 13 35 21 0 9 10 15 25 15 18 0
25 5 25 20 0 16 7 20 35 20 28 0 35 4 35 20 0 13 7 20 20 20 11 0 20 7 20 15
0 8 9 15 20 15 13 0 20 7 20 20 0 16 7 20 35 20 28 0 35 4 35 20 0 13 7 20 20
20 13 0 20 7 20 20 0 13 7 20 20 20 11 0 20 7 20 15 0 8 -9 15 -20 15 -11 0
-20 -7 -20 -15z m-1210 -720 c0 -8 -9 -15 -20 -15 -11 0 -20 7 -20 15 0 8 9
15 20 15 11 0 20 -7 20 -15z"/>
<path d="M2130 5705 c0 -8 7 -15 15 -15 8 0 15 7 15 15 0 8 -7 15 -15 15 -8 0
-15 -7 -15 -15z"/>
<path d="M6590 5705 c0 -9 9 -15 25 -15 16 0 25 6 25 15 0 9 -9 15 -25 15 -16
0 -25 -6 -25 -15z"/>
<path d="M7280 5670 c0 -18 -7 -20 -75 -20 -68 0 -75 -2 -75 -20 0 -18 -7 -20
-75 -20 -57 0 -75 -3 -75 -14 0 -15 -43 -26 -106 -26 -32 0 -44 -4 -44 -15 0
-12 -13 -15 -56 -15 -47 0 -57 -3 -61 -20 -4 -16 -15 -20 -62 -22 -42 -2 -56
-7 -56 -18 0 -18 34 -24 81 -15 20 3 34 12 34 20 0 12 16 15 74 15 65 0 74 2
79 20 4 17 14 20 61 20 42 0 56 4 56 14 0 10 20 16 75 21 54 5 75 11 75 21 0
10 13 14 44 14 63 0 106 11 106 26 0 11 18 14 75 14 68 0 75 2 75 20 0 18 -7
20 -75 20 -68 0 -75 -2 -75 -20z"/>
<path d="M6480 5445 c0 -11 11 -15 40 -15 29 0 40 4 40 15 0 11 -11 15 -40 15
-29 0 -40 -4 -40 -15z"/>
<path d="M6370 5405 c0 -8 9 -15 20 -15 11 0 20 7 20 15 0 8 -9 15 -20 15 -11
0 -20 -7 -20 -15z"/>
<path d="M9560 5295 c0 -42 3 -55 15 -55 12 0 15 13 15 55 0 42 -3 55 -15 55
-12 0 -15 -13 -15 -55z"/>
<path d="M3230 5296 c0 -18 32 -26 113 -26 53 0 67 -3 67 -15 0 -11 11 -15 43
-15 68 0 117 -11 117 -26 0 -11 24 -14 110 -14 91 0 110 3 110 15 0 12 -14 15
-64 15 -82 0 -126 9 -126 26 0 11 -21 14 -95 14 -88 0 -95 1 -95 20 0 19 -7
20 -90 20 -70 0 -90 -3 -90 -14z"/>
<path d="M5880 5255 c0 -8 9 -15 20 -15 11 0 20 7 20 15 0 8 -9 15 -20 15 -11
0 -20 -7 -20 -15z"/>
<path d="M5800 5215 c0 -8 9 -15 20 -15 11 0 20 7 20 15 0 8 -9 15 -20 15 -11
0 -20 -7 -20 -15z"/>
<path d="M9600 5190 c0 -28 4 -40 14 -40 10 0 16 -20 21 -70 5 -50 11 -70 21
-70 10 0 14 -15 14 -60 0 -48 -3 -60 -16 -60 -9 0 -18 9 -21 20 -3 11 -12 20
-19 20 -8 0 -14 9 -14 20 0 13 -7 20 -20 20 -13 0 -20 7 -20 20 0 13 -7 20
-20 20 -11 0 -20 6 -20 14 0 7 -14 16 -31 20 -46 9 -49 8 -49 -13 0 -15 10
-21 40 -26 25 -4 40 -12 40 -21 0 -8 9 -14 20 -14 13 0 20 -7 20 -20 0 -11 6
-20 14 -20 20 0 29 -67 21 -151 -5 -49 -11 -69 -21 -69 -8 0 -14 -9 -14 -21 0
-12 -8 -23 -20 -26 -11 -3 -20 -14 -20 -24 0 -12 -7 -19 -20 -19 -13 0 -20 -7
-20 -20 0 -11 -6 -20 -14 -20 -8 0 -17 -13 -21 -30 -4 -17 -13 -30 -22 -30 -8
0 -17 -9 -20 -20 -3 -11 -12 -20 -19 -20 -8 0 -14 -9 -14 -20 0 -13 -7 -20
-20 -20 -13 0 -20 -7 -20 -20 0 -13 -7 -20 -20 -20 -13 0 -20 -7 -20 -20 0
-16 -7 -20 -35 -20 -28 0 -35 -4 -35 -20 0 -13 -7 -20 -20 -20 -13 0 -20 -7
-20 -19 0 -14 -5 -18 -20 -14 -15 4 -20 0 -20 -16 0 -14 -6 -21 -20 -21 -13 0
-20 -7 -20 -20 0 -16 -7 -20 -35 -20 -28 0 -35 -4 -35 -20 0 -13 -7 -20 -20
-20 -13 0 -20 -7 -20 -20 0 -13 -7 -20 -20 -20 -11 0 -20 -7 -20 -15 0 -8 -9
-15 -20 -15 -13 0 -20 -7 -20 -20 0 -14 -9 -21 -35 -26 -20 -3 -35 -12 -35
-20 0 -8 -8 -14 -19 -14 -10 0 -21 -9 -24 -20 -4 -15 -14 -20 -41 -20 -29 0
-36 -4 -36 -20 0 -13 -7 -20 -20 -20 -11 0 -20 -7 -20 -15 0 -8 -14 -17 -35
-21 -20 -3 -35 -12 -35 -20 0 -8 -9 -14 -20 -14 -13 0 -20 -7 -20 -20 0 -17
-7 -20 -40 -20 -33 0 -40 -3 -40 -20 0 -16 -7 -20 -35 -20 -28 0 -35 -4 -35
-20 0 -13 -7 -20 -20 -20 -11 0 -20 -7 -20 -15 0 -10 -11 -15 -35 -15 -28 0
-35 -4 -35 -20 0 -17 -7 -20 -40 -20 -33 0 -40 -3 -40 -20 0 -16 -7 -20 -34
-20 -25 0 -35 -5 -39 -20 -4 -15 -14 -20 -41 -20 -29 0 -36 -4 -36 -20 0 -13
-7 -20 -20 -20 -11 0 -20 -7 -20 -15 0 -11 -11 -15 -36 -15 -27 0 -37 -5 -41
-20 -4 -15 -14 -20 -38 -20 -24 0 -34 -5 -38 -20 -4 -17 -14 -20 -56 -20 -44
0 -51 -3 -51 -20 0 -17 -7 -20 -40 -20 -29 0 -40 -4 -40 -15 0 -10 -14 -17
-40 -21 -24 -4 -40 -12 -40 -20 0 -9 -12 -14 -35 -14 -28 0 -35 -4 -35 -20 0
-17 -7 -20 -40 -20 -33 0 -40 -3 -40 -20 0 -17 -7 -20 -40 -20 -27 0 -40 -4
-40 -14 0 -16 -30 -26 -77 -26 -22 0 -33 -5 -33 -14 0 -9 -15 -17 -40 -21 -25
-4 -40 -12 -40 -21 0 -10 -14 -14 -51 -14 -42 0 -52 -3 -56 -20 -4 -16 -14
-20 -44 -20 -32 0 -39 -3 -39 -20 0 -17 -7 -20 -50 -20 -43 0 -50 -3 -50 -20
0 -17 -7 -20 -45 -20 -33 0 -45 -4 -45 -15 0 -9 -9 -15 -24 -15 -45 0 -86 -13
-86 -26 0 -10 16 -14 60 -14 53 0 60 2 60 20 0 18 7 20 55 20 41 0 55 4 55 14
0 9 15 17 40 21 25 4 40 12 40 21 0 8 10 14 24 14 45 0 86 13 86 26 0 10 13
14 40 14 33 0 40 3 40 20 0 18 7 20 55 20 48 0 55 2 55 20 0 16 7 20 35 20 24
0 35 5 35 15 0 11 11 15 40 15 33 0 40 3 40 20 0 17 7 20 40 20 33 0 40 3 40
20 0 18 7 20 55 20 48 0 55 2 55 20 0 16 7 20 34 20 25 0 35 5 39 20 4 15 14
20 41 20 24 0 36 5 36 14 0 9 15 17 40 21 25 4 40 12 40 21 0 9 12 14 35 14
28 0 35 4 35 20 0 17 7 20 40 20 33 0 40 3 40 20 0 16 7 20 34 20 25 0 35 5
39 20 4 15 14 20 41 20 25 0 36 4 36 15 0 8 9 15 20 15 13 0 20 7 20 20 0 17
7 20 40 20 33 0 40 3 40 20 0 16 7 20 35 20 28 0 35 4 35 20 0 16 7 20 34 20
25 0 35 5 39 20 3 12 14 20 26 20 12 0 21 6 21 15 0 10 11 15 35 15 28 0 35 4
35 20 0 13 7 20 20 20 13 0 20 7 20 20 0 16 7 20 35 20 28 0 35 4 35 20 0 15
7 20 25 20 15 0 25 6 25 15 0 8 14 17 35 21 19 3 35 12 35 19 0 7 9 15 20 18
11 3 20 12 20 21 0 12 10 16 35 16 28 0 35 4 35 20 0 13 7 20 20 20 13 0 20 7
20 20 0 16 7 20 35 20 24 0 35 5 35 15 0 8 9 15 20 15 13 0 20 7 20 20 0 13 7
20 20 20 13 0 20 7 20 20 0 13 7 20 20 20 13 0 20 7 20 20 0 16 7 20 35 20 28
0 35 4 35 20 0 13 7 20 20 20 11 0 20 7 20 15 0 8 9 15 20 15 13 0 20 7 20 20
0 13 7 20 20 20 13 0 20 7 20 20 0 13 7 20 20 20 13 0 20 7 20 20 0 13 7 20
20 20 11 0 20 7 20 15 0 8 7 15 15 15 8 0 15 9 15 20 0 13 7 20 20 20 13 0 20
7 20 20 0 13 7 20 20 20 13 0 20 7 20 20 0 11 7 20 15 20 8 0 17 14 20 34 5
22 14 36 26 39 10 3 19 12 19 21 0 9 6 16 14 16 9 0 17 15 21 40 4 25 12 40
21 40 9 0 14 12 14 36 0 27 5 37 20 41 18 5 20 14 20 79 0 67 -2 74 -20 74
-18 0 -20 7 -20 55 l0 55 55 0 c40 0 55 4 55 14 0 18 -39 28 -79 20 -27 -6
-31 -4 -31 15 0 14 -6 21 -20 21 -13 0 -20 7 -20 20 0 11 -7 20 -15 20 -11 0
-15 -11 -15 -40z"/>
<path d="M3830 5175 c0 -8 9 -15 20 -15 11 0 20 7 20 15 0 8 -9 15 -20 15 -11
0 -20 -7 -20 -15z"/>
<path d="M4367 5153 c-4 -3 -7 -12 -7 -20 0 -9 17 -13 60 -13 44 0 60 -4 60
-14 0 -22 142 -34 244 -20 65 9 63 34 -4 34 -35 0 -50 4 -50 14 0 9 -25 15
-92 20 -117 8 -203 8 -211 -1z"/>
<path d="M5008 5153 c-34 -4 -38 -7 -38 -34 0 -27 3 -29 35 -29 24 0 35 5 35
15 0 11 11 15 40 15 49 0 55 24 9 34 -17 3 -34 5 -38 4 -3 -1 -23 -3 -43 -5z"/>
<path d="M5178 5153 c-10 -2 -18 -11 -18 -19 0 -11 21 -14 110 -14 87 0 110 3
110 14 0 7 -10 16 -22 20 -26 7 -154 6 -180 -1z"/>
<path d="M4140 5100 c0 -13 -7 -20 -20 -20 -11 0 -20 -7 -20 -15 0 -8 9 -15
20 -15 11 0 20 7 20 15 0 10 11 15 35 15 28 0 35 4 35 20 0 16 -7 20 -35 20
-28 0 -35 -4 -35 -20z"/>
<path d="M9790 5105 c0 -8 14 -17 35 -21 20 -3 35 -12 35 -20 0 -8 9 -14 20
-14 11 0 20 7 20 15 0 8 -9 15 -20 15 -13 0 -20 7 -20 20 0 16 -7 20 -35 20
-24 0 -35 -5 -35 -15z"/>
<path d="M4020 5025 c0 -10 11 -15 35 -15 24 0 35 5 35 15 0 10 -11 15 -35 15
-24 0 -35 -5 -35 -15z"/>
<path d="M4477 5020 c-4 -15 -14 -20 -41 -20 -24 0 -36 -5 -36 -14 0 -8 -15
-17 -35 -20 -21 -4 -35 -13 -35 -21 0 -11 -12 -15 -40 -15 -33 0 -40 -3 -40
-20 0 -13 -7 -20 -20 -20 -11 0 -20 -6 -20 -14 0 -9 -15 -17 -40 -21 -25 -4
-40 -12 -40 -21 0 -9 -12 -14 -35 -14 -28 0 -35 -4 -35 -20 0 -16 7 -20 35
-20 28 0 35 4 35 20 0 17 7 20 40 20 28 0 40 4 40 15 0 8 14 17 35 21 19 3 35
12 35 19 0 7 18 15 40 19 26 4 40 11 40 21 0 10 11 15 35 15 28 0 35 4 35 20
0 17 7 20 40 20 33 0 40 3 40 20 0 13 7 20 20 20 11 0 20 7 20 15 0 25 -66 20
-73 -5z"/>
<path d="M9900 5025 c0 -8 9 -15 20 -15 13 0 20 -7 20 -20 0 -11 6 -20 14 -20
9 0 17 -15 21 -40 4 -23 12 -40 20 -40 16 0 21 -56 16 -174 -2 -61 -7 -86 -16
-86 -14 0 -26 -58 -18 -89 4 -16 13 -21 39 -21 l34 0 0 190 c0 160 -2 190 -15
190 -8 0 -17 14 -21 35 -3 20 -12 35 -20 35 -8 0 -14 7 -14 16 0 9 -9 18 -20
21 -11 3 -20 12 -20 19 0 8 -9 14 -20 14 -11 0 -20 -7 -20 -15z"/>
<path d="M3940 4985 c0 -10 -11 -15 -35 -15 -28 0 -35 -4 -35 -20 0 -17 -7
-20 -40 -20 -33 0 -40 -3 -40 -20 0 -16 -7 -20 -34 -20 -25 0 -35 -5 -39 -20
-3 -11 -12 -20 -21 -20 -9 0 -16 -6 -16 -14 0 -9 -15 -17 -40 -21 -25 -4 -40
-12 -40 -21 0 -9 -12 -14 -35 -14 -28 0 -35 -4 -35 -20 0 -13 -7 -20 -20 -20
-13 0 -20 -7 -20 -20 0 -16 -7 -20 -35 -20 -24 0 -35 -5 -35 -15 0 -10 11 -15
35 -15 23 0 35 5 35 14 0 8 15 17 35 20 21 4 35 13 35 21 0 8 9 15 20 15 13 0
20 7 20 20 0 17 7 20 40 20 33 0 40 3 40 20 0 16 7 20 34 20 25 0 35 5 39 20
3 11 12 20 21 20 9 0 16 7 16 15 0 11 11 15 40 15 33 0 40 3 40 20 0 16 7 20
35 20 28 0 35 4 35 20 0 17 7 20 40 20 29 0 40 4 40 15 0 11 -11 15 -40 15
-29 0 -40 -4 -40 -15z"/>
<path d="M7020 4835 c0 -10 11 -15 35 -15 24 0 35 5 35 15 0 10 -11 15 -35 15
-24 0 -35 -5 -35 -15z"/>
<path d="M6963 4813 c-13 -2 -23 -11 -23 -19 0 -10 -12 -14 -40 -14 -33 0 -40
-3 -40 -20 0 -17 -7 -20 -40 -20 -33 0 -40 -3 -40 -20 0 -17 -7 -20 -50 -20
-38 0 -50 -4 -50 -15 0 -11 12 -15 50 -15 36 0 50 4 50 14 0 8 16 16 40 20 26
4 40 11 40 21 0 11 11 15 40 15 33 0 40 3 40 20 0 16 7 20 35 20 28 0 35 4 35
20 0 20 -5 21 -47 13z"/>
<path d="M3980 4761 c0 -17 -6 -21 -35 -21 -28 0 -35 -4 -35 -20 0 -17 -7 -20
-40 -20 -28 0 -40 -4 -40 -15 0 -8 -14 -17 -35 -21 -20 -3 -35 -12 -35 -20 0
-8 -9 -14 -21 -14 -12 0 -23 -8 -26 -20 -4 -15 -14 -20 -39 -20 -27 0 -34 -4
-34 -20 0 -16 -7 -20 -35 -20 -28 0 -35 -4 -35 -20 0 -13 -7 -20 -19 -20 -10
0 -21 -9 -24 -20 -4 -15 -14 -20 -36 -20 -21 0 -31 -5 -31 -15 0 -9 -9 -15
-21 -15 -12 0 -23 -8 -26 -20 -3 -11 -14 -20 -24 -20 -12 0 -19 -7 -19 -20 0
-11 -7 -20 -15 -20 -8 0 -15 -7 -15 -15 0 -8 7 -15 15 -15 8 0 15 7 15 15 0 8
9 15 20 15 13 0 20 7 20 20 0 17 7 20 40 20 33 0 40 3 40 20 0 13 7 20 20 20
11 0 20 7 20 15 0 8 14 17 35 21 20 3 35 12 35 20 0 8 9 14 20 14 13 0 20 7
20 20 0 16 7 20 34 20 25 0 35 5 39 20 3 12 14 20 26 20 14 0 21 6 21 20 0 16
7 20 35 20 23 0 35 5 35 14 0 9 15 17 40 21 23 4 40 12 40 20 0 7 16 16 35 19
20 4 35 13 35 21 0 9 14 15 38 17 25 2 37 8 37 18 0 10 -12 16 -37 18 -33 3
-38 0 -38 -17z"/>
<path d="M5540 4760 c0 -17 -7 -20 -40 -20 -28 0 -40 -4 -40 -14 0 -8 4 -17 9
-20 15 -10 71 6 71 20 0 8 15 14 37 16 27 2 39 8 41 21 3 14 -4 17 -37 17 -34
0 -41 -3 -41 -20z"/>
<path d="M3370 4645 c0 -10 -11 -15 -35 -15 -28 0 -35 -4 -35 -20 0 -13 -7
-20 -20 -20 -13 0 -20 -7 -20 -20 0 -16 -7 -20 -35 -20 -24 0 -35 -5 -35 -15
0 -10 11 -15 35 -15 24 0 35 5 35 15 0 8 9 15 20 15 13 0 20 7 20 20 0 16 7
20 35 20 28 0 35 4 35 20 0 13 7 20 20 20 11 0 20 7 20 15 0 8 -9 15 -20 15
-11 0 -20 -7 -20 -15z"/>
<path d="M6600 4645 c0 -11 -11 -15 -36 -15 -27 0 -37 -5 -41 -20 -5 -17 -14
-20 -59 -20 -47 0 -54 -2 -54 -20 0 -17 -7 -20 -40 -20 -29 0 -40 -4 -40 -15
0 -11 11 -15 40 -15 29 0 40 4 40 15 0 12 13 15 55 15 48 0 55 2 55 20 0 17 7
20 40 20 33 0 40 3 40 20 0 17 7 20 40 20 29 0 40 4 40 15 0 11 -11 15 -40 15
-29 0 -40 -4 -40 -15z"/>
<path d="M9940 4495 c0 -18 -5 -25 -20 -25 -16 0 -20 -7 -20 -35 0 -28 -4 -35
-20 -35 -13 0 -20 -7 -20 -20 0 -13 -7 -20 -20 -20 -16 0 -20 -7 -20 -34 0
-25 -5 -35 -20 -39 -11 -3 -20 -12 -20 -21 0 -9 -7 -16 -15 -16 -8 0 -15 -9
-15 -20 0 -13 -7 -20 -20 -20 -13 0 -20 -7 -20 -20 0 -13 -7 -20 -20 -20 -13
0 -20 -7 -20 -20 0 -13 -7 -20 -20 -20 -11 0 -20 -7 -20 -15 0 -8 -7 -15 -15
-15 -8 0 -15 -9 -15 -20 0 -11 7 -20 15 -20 8 0 15 9 15 20 0 13 7 20 20 20
11 0 20 7 20 15 0 8 9 15 20 15 13 0 20 7 20 20 0 13 7 20 20 20 13 0 20 7 20
20 0 11 7 20 15 20 8 0 15 9 15 20 0 13 7 20 20 20 13 0 20 7 20 20 0 13 7 20
20 20 13 0 20 7 20 20 0 11 7 20 15 20 8 0 17 14 21 35 4 25 11 35 25 35 12 0
19 7 19 20 0 11 7 20 15 20 11 0 15 11 15 40 0 29 -4 40 -15 40 -9 0 -15 -9
-15 -25z"/>
<path d="M3150 4495 c0 -8 9 -15 20 -15 11 0 20 7 20 15 0 8 -9 15 -20 15 -11
0 -20 -7 -20 -15z"/>
<path d="M4860 4490 c0 -17 -7 -20 -40 -20 -29 0 -40 -4 -40 -15 0 -11 -11
-15 -40 -15 -33 0 -40 -3 -40 -20 0 -18 -7 -20 -55 -20 -48 0 -55 -2 -55 -20
0 -17 -7 -20 -40 -20 -28 0 -40 -4 -40 -14 0 -8 4 -17 9 -20 16 -10 71 6 71
20 0 10 15 14 55 14 48 0 55 2 55 20 0 17 7 20 40 20 33 0 40 3 40 20 0 17 7
20 40 20 27 0 40 4 40 14 0 16 30 26 78 26 22 0 32 5 32 15 0 12 -13 15 -55
15 -48 0 -55 -2 -55 -20z"/>
<path d="M6220 4495 c0 -12 13 -15 55 -15 42 0 55 3 55 15 0 12 -13 15 -55 15
-42 0 -55 -3 -55 -15z"/>
<path d="M10050 4455 c0 -48 2 -55 20 -55 18 0 20 -7 20 -55 0 -48 2 -55 20
-55 11 0 20 7 20 15 0 8 9 15 20 15 13 0 20 7 20 20 0 15 -7 20 -25 20 -18 0
-25 5 -25 20 0 11 -7 20 -15 20 -12 0 -15 13 -15 55 0 48 -2 55 -20 55 -18 0
-20 -7 -20 -55z"/>
<path d="M3110 4455 c0 -8 -9 -15 -20 -15 -13 0 -20 -7 -20 -20 0 -13 -7 -20
-20 -20 -13 0 -20 -7 -20 -20 0 -16 -7 -20 -35 -20 -33 0 -35 -2 -35 -35 0
-24 5 -35 15 -35 8 0 15 9 15 20 0 13 7 20 20 20 11 0 20 7 20 15 0 8 9 15 20
15 13 0 20 7 20 20 0 13 7 20 20 20 13 0 20 7 20 20 0 13 7 20 20 20 11 0 20
7 20 15 0 8 -9 15 -20 15 -11 0 -20 -7 -20 -15z"/>
<path d="M6140 4455 c0 -9 -9 -15 -24 -15 -45 0 -86 -13 -86 -26 0 -10 -15
-14 -55 -14 -48 0 -55 -2 -55 -20 0 -17 -7 -20 -40 -20 -33 0 -40 -3 -40 -20
0 -18 -7 -20 -55 -20 -42 0 -55 -3 -55 -15 0 -12 13 -15 55 -15 42 0 55 3 55
15 0 9 9 15 24 15 45 0 86 13 86 26 0 10 13 14 40 14 33 0 40 3 40 20 0 18 7
20 55 20 48 0 55 2 55 20 0 17 7 20 40 20 29 0 40 4 40 15 0 11 -11 15 -40 15
-29 0 -40 -4 -40 -15z"/>
<path d="M3283 4323 c-15 -3 -23 -12 -23 -24 0 -10 -7 -19 -15 -19 -8 0 -15
-7 -15 -15 0 -8 9 -15 20 -15 11 0 20 6 20 14 0 8 14 17 30 21 21 5 30 13 30
26 0 19 -5 20 -47 12z"/>
<path d="M4440 4305 c0 -10 11 -15 35 -15 24 0 35 5 35 15 0 10 -11 15 -35 15
-24 0 -35 -5 -35 -15z"/>
<path d="M8120 4305 c0 -9 -9 -15 -21 -15 -12 0 -23 -8 -26 -20 -4 -15 -14
-20 -39 -20 -27 0 -34 -4 -34 -20 0 -16 -7 -20 -35 -20 -28 0 -35 -4 -35 -20
0 -17 -7 -20 -40 -20 -33 0 -40 -3 -40 -20 0 -16 -7 -20 -35 -20 -25 0 -35 -4
-35 -16 0 -9 -9 -18 -20 -21 -11 -3 -20 -12 -20 -19 0 -10 -13 -14 -40 -14
-33 0 -40 -3 -40 -20 0 -16 -7 -20 -34 -20 -25 0 -35 -5 -39 -20 -4 -15 -14
-20 -41 -20 -29 0 -36 -4 -36 -20 0 -17 -7 -20 -40 -20 -27 0 -40 -4 -40 -14
0 -8 -15 -17 -35 -20 -21 -4 -35 -13 -35 -21 0 -11 -12 -15 -40 -15 -33 0 -40
-3 -40 -20 0 -16 -7 -20 -34 -20 -25 0 -35 -5 -39 -20 -4 -15 -14 -20 -41 -20
-24 0 -36 -5 -36 -14 0 -9 -15 -17 -40 -21 -23 -4 -40 -12 -40 -20 0 -7 -16
-16 -35 -19 -21 -4 -35 -13 -35 -21 0 -11 -12 -15 -40 -15 -33 0 -40 -3 -40
-20 0 -17 -7 -20 -40 -20 -33 0 -40 -3 -40 -20 0 -16 -7 -20 -35 -20 -23 0
-35 -5 -35 -14 0 -13 -41 -26 -86 -26 -15 0 -24 -6 -24 -15 0 -11 -11 -15 -36
-15 -27 0 -37 -5 -41 -20 -5 -17 -14 -20 -59 -20 -47 0 -54 -2 -54 -20 0 -17
-7 -20 -40 -20 -33 0 -40 -3 -40 -20 0 -18 -7 -20 -55 -20 -48 0 -55 -2 -55
-20 0 -17 -7 -20 -40 -20 -29 0 -40 -4 -40 -15 0 -12 -13 -15 -55 -15 -48 0
-55 -2 -55 -20 0 -18 -7 -20 -55 -20 -48 0 -55 -2 -55 -20 0 -17 -7 -20 -40
-20 -27 0 -40 -4 -40 -14 0 -14 -42 -26 -91 -26 -19 0 -29 -5 -29 -15 0 -10
-10 -15 -32 -15 -48 0 -78 -10 -78 -26 0 -10 -15 -14 -56 -14 -47 0 -57 -3
-61 -20 -5 -18 -14 -20 -73 -20 -59 0 -68 -2 -73 -20 -4 -17 -14 -20 -61 -20
-49 0 -56 -2 -56 -20 0 -18 -7 -20 -75 -20 -57 0 -75 -3 -75 -14 0 -10 -21
-16 -75 -21 -55 -5 -75 -11 -75 -21 0 -11 -17 -14 -75 -14 -68 0 -75 -2 -75
-20 0 -19 -7 -20 -95 -20 -88 0 -95 -1 -95 -20 0 -18 -7 -20 -80 -20 -61 0
-80 -3 -80 -14 0 -20 -33 -26 -152 -26 -86 0 -108 -3 -108 -14 0 -11 -34 -15
-170 -21 -134 -6 -170 -10 -170 -21 0 -11 -39 -14 -210 -14 -170 0 -210 3
-210 14 0 14 -78 26 -171 26 -37 0 -49 4 -49 15 0 10 -10 15 -29 15 -49 0 -91
12 -91 26 0 9 -12 14 -32 14 -48 0 -78 10 -78 26 0 8 -9 14 -20 14 -13 0 -20
7 -20 20 0 13 -7 20 -20 20 -11 0 -20 6 -20 14 0 7 -9 16 -20 19 -15 4 -20 14
-20 41 0 25 -4 36 -15 36 -10 0 -15 11 -15 35 0 24 5 35 15 35 12 0 15 13 15
60 0 47 -3 60 -15 60 -9 0 -15 -9 -15 -24 0 -45 -13 -86 -26 -86 -10 0 -14
-15 -14 -54 0 -45 3 -54 20 -59 15 -4 20 -14 20 -40 0 -26 5 -36 20 -40 11 -3
20 -12 20 -21 0 -11 9 -16 29 -16 20 0 30 -6 34 -20 3 -12 14 -20 26 -20 12 0
21 -6 21 -15 0 -11 11 -15 36 -15 27 0 37 -5 41 -19 3 -14 15 -21 37 -23 28
-3 31 -7 34 -40 3 -31 7 -38 24 -38 18 0 20 -4 14 -31 -3 -17 -6 -35 -6 -40 0
-5 -9 -9 -20 -9 -11 0 -20 -7 -20 -15 0 -8 -7 -15 -15 -15 -8 0 -15 -9 -15
-20 0 -13 -7 -20 -20 -20 -13 0 -20 -7 -20 -20 0 -11 -7 -20 -15 -20 -13 0
-15 -22 -15 -135 0 -113 2 -135 15 -135 13 0 15 22 15 135 0 128 1 135 20 135
13 0 20 7 20 20 0 11 7 20 15 20 8 0 15 9 15 20 0 15 7 20 25 20 16 0 25 6 25
15 0 8 7 15 15 15 10 0 15 -11 15 -35 0 -28 4 -35 20 -35 13 0 20 -7 20 -20 0
-13 7 -20 20 -20 13 0 20 -7 20 -20 0 -16 7 -20 35 -20 23 0 35 -5 35 -14 0
-16 63 -28 97 -20 40 11 27 34 -17 34 -33 0 -40 4 -40 19 0 10 -9 21 -20 24
-18 5 -20 14 -20 76 0 64 2 71 20 71 13 0 20 7 20 20 0 18 10 19 260 22 219 3
262 5 270 18 7 12 39 16 160 18 114 3 150 7 150 17 0 18 33 25 133 25 80 0 87
2 87 20 0 19 7 20 95 20 78 0 95 3 95 15 0 12 15 15 76 15 67 0 76 2 81 20 5
18 14 20 94 20 82 0 89 2 89 20 0 18 7 20 60 20 53 0 60 2 60 20 0 18 7 20 75
20 60 0 75 3 75 15 0 11 12 15 44 15 63 0 106 11 106 26 0 9 11 14 29 14 49 0
91 12 91 26 0 10 15 14 55 14 48 0 55 2 55 20 0 18 7 20 60 20 53 0 60 2 60
20 0 18 7 20 55 20 42 0 55 3 55 15 0 9 9 15 24 15 45 0 86 13 86 26 0 9 12
14 33 14 47 0 77 10 77 26 0 10 13 14 40 14 33 0 40 3 40 20 0 18 7 20 54 20
45 0 54 3 59 20 4 15 14 20 41 20 25 0 36 4 36 15 0 10 10 15 33 15 47 0 77
10 77 26 0 10 13 14 40 14 33 0 40 3 40 20 0 17 7 20 40 20 27 0 40 4 40 14 0
16 30 26 78 26 21 0 32 5 32 14 0 9 15 17 40 21 25 4 40 12 40 21 0 9 12 14
35 14 28 0 35 4 35 20 0 17 7 20 40 20 33 0 40 3 40 20 0 17 7 20 40 20 27 0
40 4 40 14 0 15 30 26 73 26 16 0 27 5 27 14 0 9 15 17 40 21 23 4 40 12 40
20 0 8 17 16 40 20 25 4 40 12 40 21 0 9 12 14 35 14 28 0 35 4 35 20 0 17 7
20 40 20 33 0 40 3 40 20 0 13 7 20 20 20 11 0 20 7 20 15 0 11 11 15 36 15
27 0 37 5 41 20 4 15 14 20 39 20 27 0 34 4 34 20 0 17 7 20 40 20 33 0 40 3
40 20 0 16 7 20 35 20 28 0 35 4 35 20 0 17 7 20 40 20 28 0 40 4 40 15 0 8
14 17 35 21 20 3 35 12 35 20 0 8 9 14 20 14 13 0 20 7 20 20 0 17 7 20 40 20
33 0 40 3 40 20 0 16 7 20 35 20 28 0 35 4 35 20 0 13 7 20 20 20 11 0 20 7
20 15 0 10 -11 15 -35 15 -24 0 -35 -5 -35 -15z m-4750 -1575 c0 -29 -4 -40
-15 -40 -12 0 -15 -13 -15 -55 l0 -55 -40 0 c-39 0 -40 1 -40 34 0 25 -5 35
-20 39 -15 4 -20 14 -20 41 0 25 -4 36 -15 36 -8 0 -15 9 -15 20 0 19 7 20 90
20 l90 0 0 -40z"/>
<path d="M10200 4305 c0 -8 9 -15 20 -15 11 0 20 7 20 15 0 8 -9 15 -20 15
-11 0 -20 -7 -20 -15z"/>
<path d="M2920 4270 c0 -13 -7 -20 -20 -20 -13 0 -20 -7 -20 -20 0 -11 -7 -20
-15 -20 -8 0 -15 -9 -15 -20 0 -11 7 -20 15 -20 8 0 15 9 15 20 0 13 7 20 20
20 13 0 20 7 20 20 0 11 7 20 15 20 8 0 15 9 15 20 0 11 -7 20 -15 20 -8 0
-15 -9 -15 -20z"/>
<path d="M4383 4283 c-13 -2 -23 -11 -23 -19 0 -9 -11 -14 -35 -14 -28 0 -35
-4 -35 -20 0 -17 -7 -20 -40 -20 -33 0 -40 -3 -40 -20 0 -16 -7 -20 -35 -20
-28 0 -35 -4 -35 -20 0 -17 -7 -20 -40 -20 -28 0 -40 -4 -40 -14 0 -9 -15 -17
-40 -21 -23 -4 -40 -12 -40 -20 0 -7 -16 -16 -35 -19 -21 -4 -35 -13 -35 -21
0 -11 -12 -15 -40 -15 -33 0 -40 -3 -40 -20 0 -16 -7 -20 -35 -20 -28 0 -35
-4 -35 -20 0 -15 -7 -20 -25 -20 -15 0 -25 -6 -25 -14 0 -8 -15 -17 -35 -20
-21 -4 -35 -13 -35 -21 0 -8 -9 -15 -20 -15 -13 0 -20 -7 -20 -20 0 -16 -7
-20 -35 -20 -28 0 -35 -4 -35 -20 0 -18 -7 -20 -60 -20 -47 0 -60 -3 -60 -15
0 -13 22 -15 135 -15 113 0 135 2 135 15 0 10 -11 15 -35 15 -28 0 -35 4 -35
20 0 11 7 20 15 20 8 0 15 9 15 20 0 17 7 20 40 20 28 0 40 4 40 15 0 8 14 17
35 21 19 3 35 12 35 19 0 8 17 16 40 20 25 4 40 12 40 21 0 8 9 14 20 14 13 0
20 7 20 20 0 17 7 20 40 20 33 0 40 3 40 20 0 16 7 20 35 20 28 0 35 4 35 20
0 17 7 20 40 20 29 0 40 4 40 15 0 10 11 15 35 15 28 0 35 4 35 20 0 17 7 20
40 20 33 0 40 3 40 20 0 16 7 20 35 20 28 0 35 4 35 20 0 17 7 20 41 20 33 0
40 3 37 17 -3 19 -19 23 -55 16z"/>
<path d="M5658 4283 c-25 -3 -38 -9 -38 -19 0 -10 14 -14 56 -14 47 0 55 3 52
17 -4 19 -14 22 -70 16z"/>
<path d="M4970 4266 c0 -8 -15 -17 -35 -20 -21 -4 -35 -13 -35 -21 0 -11 -12
-15 -40 -15 -27 0 -40 -4 -40 -14 0 -8 -15 -17 -34 -20 -22 -4 -36 -13 -39
-26 -4 -15 -14 -20 -40 -20 -26 0 -36 -5 -40 -20 -4 -15 -14 -20 -41 -20 -34
0 -36 -1 -36 -35 0 -28 -4 -35 -20 -35 -11 0 -20 7 -20 15 0 31 -29 15 -32
-17 -3 -30 -6 -33 -40 -36 -23 -2 -38 -8 -38 -16 0 -14 -42 -26 -86 -26 -14 0
-24 -6 -24 -14 0 -14 -42 -26 -91 -26 -19 0 -29 -5 -29 -15 0 -12 15 -15 75
-15 57 0 75 3 75 14 0 17 44 26 126 26 48 0 64 3 64 14 0 10 22 16 80 21 89 8
109 28 40 39 -52 8 -56 36 -5 36 28 0 35 4 35 20 0 17 7 20 40 20 33 0 40 3
40 20 0 16 7 20 35 20 23 0 35 5 35 14 0 9 15 17 40 21 23 4 40 12 40 20 0 7
16 16 35 19 21 4 35 13 35 21 0 8 9 15 20 15 16 0 20 7 20 35 0 33 -2 35 -35
35 -23 0 -35 -5 -35 -14z"/>
<path d="M10130 4245 c0 -24 5 -35 15 -35 10 0 15 11 15 35 0 24 -5 35 -15 35
-10 0 -15 -11 -15 -35z"/>
<path d="M5523 4243 c-13 -2 -23 -11 -23 -19 0 -11 -15 -14 -60 -14 -53 0 -60
-2 -60 -20 0 -18 -7 -20 -55 -20 -48 0 -55 -2 -55 -20 0 -18 -7 -20 -60 -20
-47 0 -60 -3 -60 -15 0 -12 13 -15 60 -15 44 0 60 4 60 14 0 14 42 26 91 26
19 0 29 5 29 15 0 9 9 15 24 15 45 0 86 13 86 26 0 10 15 14 55 14 48 0 55 2
55 20 0 16 -6 20 -32 19 -18 -1 -43 -4 -55 -6z"/>
<path d="M3190 4225 c0 -8 -9 -15 -20 -15 -13 0 -20 -7 -20 -20 0 -13 -7 -20
-20 -20 -16 0 -20 -7 -20 -35 0 -23 -5 -35 -14 -35 -16 0 -26 -43 -26 -107 0
-36 4 -46 20 -50 15 -4 20 -14 20 -39 0 -27 4 -34 20 -34 13 0 20 -7 20 -20 0
-17 7 -20 40 -20 28 0 40 -4 40 -15 0 -18 58 -30 105 -21 21 4 35 13 35 21 0
11 -14 15 -55 15 -42 0 -55 4 -55 15 0 10 -14 17 -40 21 -22 4 -40 12 -40 19
0 7 -9 15 -20 18 -11 3 -20 12 -20 21 0 9 -7 16 -15 16 -12 0 -15 16 -15 80 0
62 3 80 14 80 8 0 17 15 20 35 5 26 12 35 26 35 13 0 20 7 20 20 0 11 7 20 15
20 8 0 15 7 15 15 0 8 -7 15 -15 15 -8 0 -15 -7 -15 -15z"/>
<path d="M2810 4150 c0 -11 7 -20 15 -20 8 0 15 9 15 20 0 11 -7 20 -15 20 -8
0 -15 -9 -15 -20z"/>
<path d="M2770 4060 c0 -33 -3 -40 -20 -40 -19 0 -20 -7 -20 -150 0 -143 1
-150 20 -150 17 0 20 -7 20 -40 l0 -40 54 0 c45 0 54 -3 59 -20 4 -15 14 -20
41 -20 24 0 36 -5 36 -14 0 -8 15 -17 35 -20 21 -4 35 -13 35 -21 0 -12 16
-15 75 -15 60 0 75 3 75 15 0 11 -12 15 -44 15 -63 0 -106 11 -106 26 0 9 -12
14 -35 14 -28 0 -35 4 -35 20 0 17 -7 20 -40 20 -33 0 -40 3 -40 20 0 13 -7
20 -20 20 -13 0 -20 7 -20 20 0 11 -6 20 -14 20 -7 0 -16 9 -19 20 -3 11 -12
20 -21 20 -14 0 -16 18 -16 130 0 109 2 130 15 130 11 0 15 11 15 40 0 29 -4
40 -15 40 -11 0 -15 -11 -15 -40z"/>
<path d="M5028 4093 c-10 -2 -18 -11 -18 -19 0 -10 -14 -14 -52 -14 -67 0 -98
-9 -98 -26 0 -11 -18 -14 -75 -14 -57 0 -75 -3 -75 -14 0 -17 31 -26 90 -26
59 0 90 9 90 26 0 11 18 14 75 14 68 0 75 2 75 20 0 18 7 20 61 20 52 0 60 2
57 18 -3 13 -14 17 -58 19 -30 0 -63 -1 -72 -4z"/>
<path d="M5938 4093 c-48 -7 -34 -33 18 -33 38 0 45 3 42 17 -3 19 -17 23 -60
16z"/>
<path d="M5803 4040 c-5 -17 -14 -20 -59 -20 -47 0 -54 -2 -54 -20 0 -18 -7
-20 -55 -20 -48 0 -55 -2 -55 -20 0 -14 7 -20 24 -20 45 0 86 13 86 26 0 9 12
14 33 14 47 0 77 10 77 26 0 10 13 14 40 14 33 0 40 3 40 20 0 16 -7 20 -36
20 -27 0 -37 -5 -41 -20z"/>
<path d="M9560 4040 c0 -13 -7 -20 -20 -20 -13 0 -20 -7 -20 -20 0 -13 -7 -20
-20 -20 -11 0 -20 -7 -20 -15 0 -8 9 -15 20 -15 11 0 20 7 20 15 0 8 7 15 16
15 9 0 18 9 21 20 3 11 12 20 19 20 8 0 14 9 14 20 0 11 -7 20 -15 20 -8 0
-15 -9 -15 -20z"/>
<path d="M5460 3926 c0 -13 -41 -26 -86 -26 -15 0 -24 -6 -24 -15 0 -12 13
-15 55 -15 48 0 55 2 55 20 0 18 7 20 55 20 42 0 55 3 55 15 0 12 -13 15 -55
15 -40 0 -55 -4 -55 -14z"/>
<path d="M9440 3925 c0 -8 -14 -17 -35 -21 -20 -3 -35 -12 -35 -20 0 -8 -9
-14 -20 -14 -13 0 -20 -7 -20 -20 0 -13 -7 -20 -20 -20 -13 0 -20 -7 -20 -20
0 -13 -7 -20 -20 -20 -11 0 -20 -6 -20 -14 0 -7 -9 -16 -20 -19 -11 -3 -20
-12 -20 -21 0 -9 -13 -18 -35 -22 -20 -3 -35 -12 -35 -20 0 -8 -9 -14 -20 -14
-13 0 -20 -7 -20 -20 0 -16 -7 -20 -35 -20 -28 0 -35 -4 -35 -20 0 -13 -7 -20
-20 -20 -11 0 -20 -7 -20 -15 0 -8 9 -15 20 -15 11 0 20 7 20 15 0 10 11 15
35 15 28 0 35 4 35 20 0 13 7 20 20 20 13 0 20 7 20 20 0 16 7 20 35 20 28 0
35 4 35 20 0 13 7 20 20 20 13 0 20 7 20 20 0 13 7 20 20 20 11 0 20 7 20 15
0 8 9 15 20 15 13 0 20 7 20 20 0 16 7 20 35 20 28 0 35 4 35 20 0 13 7 20 20
20 13 0 20 7 20 20 0 13 7 20 20 20 11 0 20 7 20 15 0 8 -9 15 -20 15 -11 0
-20 -7 -20 -15z"/>
<path d="M4008 3863 c-10 -2 -18 -11 -18 -19 0 -11 19 -14 90 -14 83 0 90 1
90 20 0 18 -6 20 -72 19 -40 -1 -81 -3 -90 -6z"/>
<path d="M5237 3864 c-4 -4 -7 -13 -7 -21 0 -9 17 -13 61 -13 52 0 60 2 57 18
-2 13 -15 18 -53 20 -28 2 -54 0 -58 -4z"/>
<path d="M3720 3816 c0 -18 31 -26 100 -26 92 0 160 11 160 26 0 11 -27 14
-130 14 -104 0 -130 -3 -130 -14z"/>
<path d="M5350 3775 c0 -8 6 -15 14 -15 10 0 17 -16 22 -45 4 -28 11 -45 20
-45 10 0 14 16 14 60 l0 60 -35 0 c-24 0 -35 -5 -35 -15z"/>
<path d="M5200 3735 c0 -12 13 -15 55 -15 42 0 55 3 55 15 0 12 -13 15 -55 15
-42 0 -55 -3 -55 -15z"/>
<path d="M4290 3620 c0 -19 -7 -20 -100 -20 -82 0 -100 -3 -100 -15 0 -12 19
-15 115 -15 91 0 115 3 115 14 0 14 49 26 113 26 26 0 37 4 37 15 0 12 -17 15
-90 15 -83 0 -90 -1 -90 -20z"/>
<path d="M2810 3570 c0 -33 3 -40 20 -40 17 0 20 -7 20 -40 0 -28 4 -40 14
-40 10 0 16 -13 18 -37 2 -27 8 -39 21 -41 14 -3 17 4 17 37 0 34 -3 41 -20
41 -17 0 -20 7 -20 40 0 29 -4 40 -15 40 -10 0 -17 14 -21 40 -4 24 -12 40
-20 40 -10 0 -14 -13 -14 -40z"/>
<path d="M3800 3545 c0 -13 21 -15 130 -15 109 0 130 2 130 15 0 13 -21 15
-130 15 -109 0 -130 -2 -130 -15z"/>
<path d="M8950 3545 c0 -10 -11 -15 -35 -15 -28 0 -35 -4 -35 -19 0 -14 -10
-20 -40 -25 -26 -4 -40 -11 -40 -21 0 -8 -9 -15 -20 -15 -13 0 -20 -7 -20 -20
0 -13 -7 -20 -20 -20 -11 0 -20 -7 -20 -15 0 -8 -14 -17 -35 -21 -19 -3 -35
-12 -35 -19 0 -7 -18 -15 -40 -19 -26 -4 -40 -11 -40 -21 0 -8 -9 -15 -20 -15
-11 0 -20 -7 -20 -15 0 -8 -14 -17 -35 -21 -25 -4 -35 -11 -35 -25 0 -15 -7
-19 -40 -19 -29 0 -40 -4 -40 -15 0 -8 -7 -15 -16 -15 -9 0 -18 -9 -21 -20 -4
-15 -14 -20 -40 -20 -26 0 -36 -5 -40 -20 -4 -15 -14 -20 -39 -20 -27 0 -34
-4 -34 -20 0 -16 -7 -20 -34 -20 -25 0 -35 -5 -39 -20 -4 -15 -14 -20 -41 -20
-25 0 -36 -5 -36 -15 0 -8 -14 -17 -35 -21 -20 -3 -35 -12 -35 -20 0 -8 -10
-14 -25 -14 -18 0 -25 -5 -25 -20 0 -15 7 -20 25 -20 18 0 25 5 25 20 0 16 7
20 35 20 28 0 35 4 35 20 0 17 7 20 40 20 27 0 40 4 40 14 0 8 15 17 35 20 21
4 35 13 35 21 0 10 11 15 36 15 27 0 37 5 41 20 4 15 14 20 39 20 27 0 34 4
34 20 0 13 7 20 20 20 11 0 20 6 20 14 0 9 15 17 40 21 23 4 40 12 40 20 0 7
16 16 35 19 21 4 35 13 35 21 0 8 9 15 19 15 30 0 51 11 51 26 0 8 10 14 25
14 18 0 25 5 25 20 0 16 7 20 34 20 25 0 35 5 39 20 3 11 12 20 21 20 9 0 16
6 16 14 0 8 15 17 35 20 21 4 35 13 35 21 0 9 10 15 25 15 18 0 25 5 25 20 0
16 7 20 35 20 28 0 35 4 35 20 0 13 7 20 20 20 11 0 20 7 20 15 0 8 -9 15 -20
15 -11 0 -20 -7 -20 -15z"/>
<path d="M3208 3523 c-10 -2 -18 -11 -18 -19 0 -12 47 -14 300 -14 248 0 300
2 300 14 0 7 -14 16 -31 20 -35 7 -524 6 -551 -1z"/>
<path d="M5390 3355 c0 -8 7 -15 15 -15 8 0 15 7 15 15 0 8 -7 15 -15 15 -8 0
-15 -7 -15 -15z"/>
<path d="M2920 3320 c0 -11 -7 -20 -15 -20 -8 0 -15 -9 -15 -20 0 -16 7 -20
35 -20 23 0 35 -5 35 -14 0 -8 15 -17 35 -20 21 -4 35 -13 35 -21 0 -11 12
-15 40 -15 33 0 40 -3 40 -20 0 -19 7 -20 95 -20 74 0 95 3 95 14 0 17 -44 26
-126 26 -50 0 -64 3 -64 15 0 11 -11 15 -40 15 -33 0 -40 3 -40 20 0 13 -7 20
-20 20 -13 0 -20 7 -20 20 0 11 -7 20 -15 20 -8 0 -15 9 -15 20 0 13 -7 20
-20 20 -13 0 -20 -7 -20 -20z"/>
<path d="M5253 3333 c-13 -2 -23 -11 -23 -19 0 -9 -11 -14 -35 -14 -28 0 -35
-4 -35 -20 0 -13 -7 -20 -20 -20 -13 0 -20 -7 -20 -20 0 -11 7 -20 15 -20 8 0
15 -7 15 -15 0 -9 9 -15 25 -15 24 0 25 2 19 36 -6 30 -4 36 15 41 11 3 21 12
21 19 0 11 18 14 75 14 57 0 75 3 75 14 0 22 -62 32 -127 19z"/>
<path d="M5430 3300 c0 -36 -2 -40 -26 -40 -19 0 -25 -5 -22 -17 5 -26 38 -29
45 -4 3 12 12 21 19 21 10 0 14 13 14 40 0 29 -4 40 -15 40 -11 0 -15 -11 -15
-40z"/>
<path d="M5270 3205 c0 -12 13 -15 55 -15 42 0 55 3 55 15 0 12 -13 15 -55 15
-42 0 -55 -3 -55 -15z"/>
<path d="M5348 2820 c4 -167 3 -170 -17 -170 -12 0 -21 -6 -21 -15 0 -8 9 -15
20 -15 11 0 20 7 20 15 0 8 7 15 15 15 13 0 15 26 15 170 0 155 -2 170 -17
170 -17 0 -18 -13 -15 -170z"/>
<path d="M5190 2940 c0 -17 7 -20 40 -20 33 0 40 3 40 20 0 17 -7 20 -40 20
-33 0 -40 -3 -40 -20z"/>
<path d="M6618 2953 c-10 -2 -18 -11 -18 -19 0 -10 -14 -14 -55 -14 -48 0 -55
-2 -55 -20 0 -18 -7 -20 -60 -20 -46 0 -60 -3 -60 -15 0 -10 -14 -17 -40 -21
-24 -4 -40 -12 -40 -20 0 -8 -10 -14 -24 -14 -45 0 -86 -13 -86 -26 0 -11 -18
-14 -75 -14 -68 0 -75 -2 -75 -20 0 -18 -7 -20 -54 -20 -45 0 -54 -3 -59 -20
-4 -18 -14 -20 -75 -20 -61 0 -70 -2 -75 -20 -4 -17 -14 -20 -61 -20 -43 0
-56 -3 -56 -15 0 -12 -14 -15 -64 -15 -82 0 -126 -9 -126 -26 0 -11 -18 -14
-75 -14 -57 0 -75 3 -75 14 0 9 -18 15 -51 19 -56 7 -69 3 -69 -19 0 -10 12
-14 45 -14 38 0 45 -3 45 -20 0 -17 -7 -20 -40 -20 -27 0 -43 5 -46 15 -3 8
-21 17 -40 21 l-34 6 0 149 c0 142 1 149 20 149 13 0 20 7 20 20 0 13 -7 20
-20 20 -13 0 -20 -7 -20 -20 0 -11 -6 -20 -14 -20 -19 0 -25 -43 -25 -182 0
-111 1 -118 19 -118 13 0 20 -7 20 -20 0 -11 -7 -20 -15 -20 -8 0 -15 -9 -15
-20 0 -18 7 -20 79 -20 97 0 141 8 141 26 0 11 18 14 75 14 68 0 75 2 75 20 0
19 7 20 95 20 88 0 95 1 95 20 0 18 7 20 75 20 57 0 75 3 75 14 0 14 42 26 91
26 19 0 29 5 29 15 0 12 13 15 55 15 48 0 55 2 55 20 0 18 7 20 75 20 68 0 75
2 75 20 0 18 7 20 55 20 48 0 55 2 55 20 0 18 7 20 60 20 53 0 60 2 60 20 0
18 7 20 55 20 42 0 55 3 55 15 0 11 11 15 40 15 33 0 40 3 40 20 0 18 7 20 61
20 52 0 60 2 57 18 -2 12 -14 17 -43 19 -22 0 -48 -1 -57 -4z"/>
<path d="M7850 2906 c0 -16 -30 -26 -77 -26 -26 0 -33 -4 -33 -20 0 -17 -7
-20 -41 -20 -33 0 -40 -3 -37 -17 2 -10 9 -18 16 -17 6 1 30 2 52 3 27 1 40 6
40 15 0 9 15 17 40 21 25 4 40 12 40 21 0 8 9 14 20 14 13 0 20 7 20 20 0 13
-7 20 -20 20 -11 0 -20 -6 -20 -14z"/>
<path d="M7613 2803 c-13 -2 -23 -11 -23 -19 0 -10 -12 -14 -40 -14 -33 0 -40
-3 -40 -20 0 -17 -7 -20 -40 -20 -33 0 -40 -3 -40 -20 0 -18 -7 -20 -55 -20
-42 0 -55 -3 -55 -15 0 -12 13 -15 55 -15 41 0 55 4 55 14 0 9 15 17 40 21 25
4 40 12 40 21 0 9 12 14 36 14 27 0 37 5 41 20 4 15 14 20 39 20 27 0 34 4 34
20 0 20 -5 21 -47 13z"/>
<path d="M7250 2635 c0 -10 11 -15 35 -15 24 0 35 5 35 15 0 10 -11 15 -35 15
-24 0 -35 -5 -35 -15z"/>
<path d="M7163 2600 c-4 -14 -14 -20 -32 -20 -41 0 -71 -11 -71 -26 0 -9 11
-14 28 -14 42 0 72 11 72 26 0 10 13 14 40 14 33 0 40 3 40 20 0 16 -7 20 -36
20 -27 0 -37 -5 -41 -20z"/>
<path d="M6970 2520 c0 -21 16 -25 58 -14 39 11 27 34 -18 34 -33 0 -40 -3
-40 -20z"/>
<path d="M4852 2483 c3 -19 3 -19 153 -15 59 2 75 5 75 17 0 12 -20 15 -116
15 -105 0 -115 -2 -112 -17z"/>
<path d="M6860 2486 c0 -21 14 -27 49 -20 46 10 40 34 -9 34 -28 0 -40 -4 -40
-14z"/>
<path d="M3490 2445 c0 -12 15 -15 75 -15 68 0 75 -2 75 -20 0 -20 7 -20 420
-20 413 0 420 0 420 20 0 20 -7 20 -415 20 -362 0 -415 2 -415 15 0 12 -16 15
-80 15 -64 0 -80 -3 -80 -15z"/>
<path d="M4520 2445 c0 -13 25 -15 165 -15 140 0 165 2 165 15 0 13 -25 15
-165 15 -140 0 -165 -2 -165 -15z"/>
<path d="M6720 2445 c0 -11 -11 -15 -40 -15 -33 0 -40 -3 -40 -20 0 -18 -7
-20 -60 -20 -53 0 -60 -2 -60 -20 0 -18 -7 -20 -55 -20 -48 0 -55 -2 -55 -20
0 -18 -7 -20 -75 -20 -68 0 -75 -2 -75 -20 0 -18 -7 -20 -60 -20 -47 0 -60 -3
-60 -15 0 -12 -13 -15 -55 -15 -48 0 -55 -2 -55 -20 0 -18 -7 -20 -75 -20 -68
0 -75 -2 -75 -20 0 -18 -7 -20 -74 -20 -65 0 -74 -2 -79 -20 -5 -18 -14 -20
-81 -20 -58 0 -76 -3 -76 -14 0 -10 -24 -15 -90 -20 -68 -6 -90 -11 -90 -22 0
-11 19 -14 90 -14 83 0 90 1 90 20 0 18 7 20 80 20 61 0 80 3 80 14 0 10 21
16 75 21 55 5 75 11 75 21 0 11 17 14 75 14 68 0 75 2 75 20 0 18 7 20 55 20
48 0 55 2 55 20 0 18 7 20 75 20 68 0 75 2 75 20 0 18 7 20 60 20 47 0 60 3
60 15 0 9 9 15 24 15 45 0 86 13 86 26 0 10 16 14 60 14 53 0 60 2 60 20 0 18
7 20 55 20 48 0 55 2 55 20 0 18 7 20 55 20 42 0 55 3 55 15 0 12 -14 15 -70
15 -56 0 -70 -3 -70 -15z"/>
<path d="M5310 2370 c0 -18 -7 -20 -55 -20 -40 0 -55 -4 -55 -14 0 -8 11 -17
24 -20 34 -8 86 4 86 20 0 11 21 14 95 14 88 0 95 1 95 20 0 19 -7 20 -95 20
-88 0 -95 -1 -95 -20z"/>
<path d="M5160 2255 l0 -55 90 0 c70 0 90 3 90 14 0 17 -31 26 -98 26 l-53 0
7 35 c5 31 4 35 -15 35 -19 0 -21 -6 -21 -55z"/>
<path d="M5460 2295 c0 -8 9 -15 20 -15 11 0 20 7 20 15 0 8 -9 15 -20 15 -11
0 -20 -7 -20 -15z"/>
<path d="M5380 2255 c0 -11 11 -15 40 -15 29 0 40 4 40 15 0 11 -11 15 -40 15
-29 0 -40 -4 -40 -15z"/>
<path d="M3070 2220 c0 -13 7 -20 20 -20 13 0 20 -7 20 -20 0 -13 7 -20 20
-20 11 0 20 -7 20 -15 0 -8 9 -15 20 -15 13 0 20 -7 20 -20 0 -16 7 -20 35
-20 28 0 35 -4 35 -20 0 -13 7 -20 20 -20 18 0 20 -7 20 -60 0 -53 2 -60 20
-60 18 0 20 -7 20 -75 0 -68 -2 -75 -20 -75 -17 0 -20 -7 -20 -40 0 -33 -3
-40 -20 -40 -16 0 -20 -7 -20 -35 0 -23 -5 -35 -14 -35 -13 0 -26 -41 -26 -86
0 -15 -6 -24 -15 -24 -11 0 -15 -11 -15 -40 0 -33 -3 -40 -20 -40 -17 0 -20
-7 -20 -40 0 -33 -3 -40 -20 -40 -18 0 -20 -7 -20 -55 0 -48 -2 -55 -20 -55
-17 0 -20 -7 -20 -40 0 -27 -4 -40 -14 -40 -13 0 -26 -41 -26 -86 0 -15 -6
-24 -15 -24 -12 0 -15 -13 -15 -55 0 -48 -2 -55 -20 -55 -19 0 -20 -7 -20
-115 0 -108 -1 -115 -20 -115 -18 0 -20 -7 -20 -81 0 -71 2 -80 18 -77 14 3
17 16 20 81 2 55 7 77 16 77 13 0 26 79 26 156 0 24 5 34 15 34 12 0 15 13 15
56 0 47 3 57 20 61 17 5 20 14 20 59 0 47 2 54 20 54 18 0 20 7 20 55 0 48 2
55 20 55 17 0 20 7 20 40 0 27 4 40 14 40 13 0 26 41 26 86 0 15 6 24 15 24
11 0 15 11 15 36 0 27 5 37 20 41 15 4 20 14 20 39 0 27 4 34 20 34 17 0 20 7
20 40 0 33 3 40 20 40 17 0 20 7 20 41 0 33 3 40 18 37 9 -2 18 -13 20 -26 2
-12 10 -22 18 -22 11 0 14 15 14 60 0 44 -4 60 -14 60 -13 0 -26 41 -26 86 0
15 -6 24 -15 24 -11 0 -15 11 -15 40 l0 40 41 0 c33 0 40 3 37 18 -2 12 -14
18 -41 20 -23 2 -37 8 -37 17 0 8 -16 16 -40 20 -23 4 -40 12 -40 20 0 7 -16
16 -35 19 -21 4 -35 13 -35 21 0 8 -9 15 -20 15 -13 0 -20 7 -20 20 0 13 -7
20 -20 20 -13 0 -20 7 -20 20 0 13 -7 20 -20 20 -13 0 -20 -7 -20 -20z"/>
<path d="M5183 2043 c-13 -2 -23 -11 -23 -19 0 -11 -25 -14 -135 -14 -128 0
-135 -1 -135 -20 0 -19 -7 -20 -191 -20 -176 0 -190 -1 -187 -17 3 -15 17 -19
88 -21 145 -6 330 8 330 24 0 11 22 14 108 14 119 0 152 6 152 26 0 11 22 14
101 14 90 0 100 2 97 18 -3 14 -16 17 -93 18 -50 1 -100 0 -112 -3z"/>
<path d="M3450 1990 c0 -19 5 -21 57 -18 46 2 59 7 61 21 3 15 -5 17 -57 17
-55 0 -61 -2 -61 -20z"/>
<path d="M10200 1990 c0 -13 -7 -20 -20 -20 -11 0 -20 -7 -20 -15 0 -8 -14
-17 -35 -21 -25 -4 -35 -11 -35 -25 0 -12 -7 -19 -20 -19 -11 0 -20 -7 -20
-15 0 -8 -9 -15 -20 -15 -13 0 -20 -7 -20 -20 0 -13 -7 -20 -20 -20 -13 0 -20
-7 -20 -20 0 -11 -7 -20 -15 -20 -8 0 -15 -7 -15 -15 0 -8 -9 -15 -20 -15 -13
0 -20 -7 -20 -20 0 -13 -7 -20 -20 -20 -13 0 -20 -7 -20 -20 0 -16 -7 -20 -35
-20 -28 0 -35 -4 -35 -20 0 -13 -7 -20 -20 -20 -13 0 -20 -7 -20 -20 0 -13 -7
-20 -20 -20 -11 0 -20 -7 -20 -15 0 -8 9 -15 20 -15 11 0 20 6 20 14 0 8 15
17 35 20 21 4 35 13 35 21 0 8 9 15 20 15 13 0 20 7 20 20 0 13 7 20 20 20 13
0 20 7 20 20 0 13 7 20 20 20 11 0 20 7 20 15 0 8 14 17 35 21 25 4 35 11 35
25 0 12 7 19 20 19 11 0 20 7 20 15 0 8 9 15 20 15 13 0 20 7 20 20 0 11 7 20
15 20 8 0 15 7 15 16 0 9 9 18 20 21 11 3 20 12 20 19 0 8 9 14 20 14 13 0 20
7 20 20 0 13 7 20 20 20 13 0 20 7 20 20 0 13 -7 20 -20 20 -13 0 -20 -7 -20
-20z"/>
<path d="M3570 1956 c0 -15 87 -25 203 -24 49 1 57 3 57 19 0 18 -10 19 -130
19 -105 0 -130 -3 -130 -14z"/>
<path d="M3870 1915 c0 -13 38 -15 285 -15 247 0 285 2 285 15 0 13 -38 15
-285 15 -247 0 -285 -2 -285 -15z"/>
<path d="M9663 1553 c-13 -2 -23 -11 -23 -19 0 -8 -9 -14 -20 -14 -13 0 -20
-7 -20 -20 0 -13 -7 -20 -20 -20 -13 0 -20 -7 -20 -20 0 -17 -7 -20 -40 -20
-33 0 -40 -3 -40 -20 0 -13 -7 -20 -20 -20 -11 0 -20 -7 -20 -15 0 -8 -14 -17
-35 -21 -20 -3 -35 -12 -35 -20 0 -8 -9 -14 -20 -14 -13 0 -20 -7 -20 -20 0
-13 -7 -20 -20 -20 -11 0 -20 -7 -20 -15 0 -8 -14 -17 -35 -21 -25 -4 -35 -11
-35 -25 0 -15 -7 -19 -40 -19 -29 0 -40 -4 -40 -15 0 -8 -7 -15 -16 -15 -9 0
-18 -9 -21 -20 -4 -15 -14 -20 -39 -20 -27 0 -34 -4 -34 -20 0 -17 -7 -20 -40
-20 -33 0 -40 -3 -40 -20 0 -13 -7 -20 -20 -20 -11 0 -20 -7 -20 -15 0 -8 -14
-17 -35 -21 -19 -3 -35 -12 -35 -19 0 -8 -17 -16 -40 -20 -25 -4 -40 -12 -40
-21 0 -9 -12 -14 -35 -14 -28 0 -35 -4 -35 -20 0 -17 -7 -20 -40 -20 -33 0
-40 -3 -40 -20 0 -16 -7 -20 -35 -20 -42 0 -49 -24 -10 -34 30 -8 45 -1 45 20
0 9 11 14 36 14 27 0 37 5 41 20 4 15 14 20 39 20 27 0 34 4 34 20 0 17 7 20
40 20 33 0 40 3 40 20 0 16 7 20 35 20 23 0 35 5 35 14 0 8 15 17 35 20 21 4
35 13 35 21 0 9 9 15 21 15 12 0 23 8 26 20 4 15 14 20 39 20 27 0 34 4 34 20
0 16 7 20 34 20 25 0 35 5 39 20 3 12 14 20 26 20 12 0 21 6 21 15 0 8 14 17
35 21 20 3 35 12 35 20 0 8 9 14 20 14 13 0 20 7 20 20 0 16 7 20 35 20 28 0
35 4 35 20 0 13 7 20 20 20 11 0 20 7 20 15 0 9 9 15 21 15 12 0 23 8 26 20 3
13 17 22 39 26 19 3 34 12 34 20 0 8 9 14 20 14 13 0 20 7 20 20 0 16 7 20 35
20 28 0 35 4 35 20 0 14 7 20 21 20 14 0 19 5 17 17 -3 19 -13 22 -45 16z"/>
<path d="M8460 816 c0 -9 -15 -17 -40 -21 -25 -4 -40 -12 -40 -21 0 -9 -12
-14 -35 -14 -28 0 -35 -4 -35 -20 0 -16 7 -20 35 -20 28 0 35 4 35 20 0 17 7
20 40 20 33 0 40 3 40 20 0 16 7 20 35 20 24 0 35 5 35 15 0 10 -11 15 -35 15
-23 0 -35 -5 -35 -14z"/>
<path d="M8200 700 c0 -17 -7 -20 -40 -20 -29 0 -40 -4 -40 -15 0 -12 13 -15
55 -15 42 0 55 3 55 15 0 10 11 15 35 15 28 0 35 4 35 20 0 17 -7 20 -50 20
-43 0 -50 -3 -50 -20z"/>
<path d="M8040 625 c0 -11 11 -15 40 -15 29 0 40 4 40 15 0 11 -11 15 -40 15
-29 0 -40 -4 -40 -15z"/>
<path d="M7960 585 c0 -11 11 -15 40 -15 29 0 40 4 40 15 0 11 -11 15 -40 15
-29 0 -40 -4 -40 -15z"/>
<path d="M7855 560 c-11 -18 5 -30 41 -30 27 0 34 4 34 20 0 16 -7 20 -34 20
-19 0 -38 -4 -41 -10z"/>
<path d="M7770 510 c0 -18 -7 -20 -55 -20 -42 0 -55 -3 -55 -15 0 -12 13 -15
55 -15 41 0 55 4 55 14 0 9 15 17 40 21 25 4 40 12 40 21 0 10 -12 14 -40 14
-33 0 -40 -3 -40 -20z"/>
<path d="M7550 435 c0 -10 -10 -15 -32 -15 -48 0 -78 -10 -78 -26 0 -10 15
-14 55 -14 48 0 55 2 55 20 0 18 7 20 55 20 42 0 55 3 55 15 0 12 -13 15 -55
15 -42 0 -55 -3 -55 -15z"/>
<path d="M2960 360 c0 -47 3 -60 15 -60 12 0 15 13 15 60 0 47 -3 60 -15 60
-12 0 -15 -13 -15 -60z"/>
<path d="M7320 360 c0 -18 -7 -20 -61 -20 -52 0 -60 -2 -57 -17 2 -10 11 -18
21 -17 9 0 35 1 57 2 28 2 40 6 40 17 0 12 13 15 55 15 48 0 55 2 55 20 0 18
-7 20 -55 20 -48 0 -55 -2 -55 -20z"/>
<path d="M7060 285 c0 -12 13 -15 55 -15 42 0 55 3 55 15 0 12 -13 15 -55 15
-42 0 -55 -3 -55 -15z"/>
<path d="M3000 190 c0 -56 3 -70 15 -70 12 0 15 14 15 70 0 56 -3 70 -15 70
-12 0 -15 -14 -15 -70z"/>
<path d="M3370 245 c0 -8 9 -15 20 -15 11 0 20 7 20 15 0 8 -9 15 -20 15 -11
0 -20 -7 -20 -15z"/>
<path d="M6940 245 c0 -12 13 -15 55 -15 42 0 55 3 55 15 0 12 -13 15 -55 15
-42 0 -55 -3 -55 -15z"/>
<path d="M3417 224 c-15 -16 -6 -34 18 -34 15 0 25 -6 25 -14 0 -13 28 -26 58
-26 6 0 12 9 12 20 0 13 -7 20 -20 20 -11 0 -20 7 -20 15 0 8 -6 15 -12 15 -7
0 -22 3 -33 6 -11 3 -24 2 -28 -2z"/>
<path d="M6843 223 c-13 -2 -23 -11 -23 -19 0 -10 13 -14 46 -14 38 0 45 3 42
18 -3 18 -26 23 -65 15z"/>
<path d="M6672 173 c2 -14 13 -18 43 -18 30 0 41 4 43 18 3 14 -4 17 -43 17
-39 0 -46 -3 -43 -17z"/>
<path d="M3562 133 c2 -13 14 -19 41 -21 24 -2 37 -8 37 -18 0 -10 14 -14 55
-14 48 0 55 -2 55 -20 0 -18 7 -20 60 -20 47 0 60 3 60 15 0 10 -10 15 -29 15
-49 0 -91 12 -91 26 0 10 -15 14 -55 14 -48 0 -55 2 -55 20 0 17 -7 20 -41 20
-33 0 -40 -3 -37 -17z"/>
<path d="M6520 135 c0 -11 11 -15 40 -15 29 0 40 4 40 15 0 11 -11 15 -40 15
-29 0 -40 -4 -40 -15z"/>
<path d="M6330 95 c0 -12 15 -15 75 -15 60 0 75 3 75 15 0 12 -15 15 -75 15
-60 0 -75 -3 -75 -15z"/>
<path d="M3040 40 c0 -29 4 -40 15 -40 11 0 15 11 15 40 0 29 -4 40 -15 40
-11 0 -15 -11 -15 -40z"/>
<path d="M6153 73 c-29 -3 -43 -9 -43 -19 0 -11 19 -14 95 -14 74 0 95 3 95
14 0 13 -56 28 -90 24 -8 -1 -34 -3 -57 -5z"/>
<path d="M3893 33 c-13 -3 -23 -11 -23 -19 0 -11 17 -14 75 -14 60 0 75 3 75
15 0 8 -8 16 -17 16 -58 5 -91 5 -110 2z"/>
<path d="M5943 33 c-13 -2 -23 -11 -23 -19 0 -11 19 -14 90 -14 70 0 90 3 90
14 0 7 -10 16 -22 20 -25 6 -100 6 -135 -1z"/>
</g>
</svg>
